<svg fill="none" height="420" width="300" xmlns="http://www.w3.org/2000/svg" xmlns:xlink="http://www.w3.org/1999/xlink"><clipPath id="a"><path d="m0 0h299.4v420h-299.4z"/></clipPath><g clip-path="url(#a)"><path d="m56.8 315-5-.1.3-2.7c0-1.2.4-2.5.5-3.8 0-1.3.1-2.8.4-4.2.5-2.7.4-5.5.6-8.2.7-7.4.4-15 .4-22.4 0-7.6.4-15.4-1.6-22.7a25 25 0 0 0 -3.3-7c-.8-1.1-1.4-1.8-1.7-3a110.1 110.1 0 0 0 -8.7-19.3 16.8 16.8 0 0 1 -2.2-11.3c.2-1.4 1-2.7 1.5-4l1.5-2 .8-1.3.6-1c.3-1.4-.1-3-.1-4.5 0-1-.4-2.3-.4-3.4 0-1 .6-2 1-2.7l1.5-3.7c.3-.6.6-1.9 1-2.4.4-.2.5-.8.9-1 .5-.3.9-1 1.3-1.5l1.5-1.6c1.5-1.1 3.7-2.2 4.7-3.8.6-1 1.5-2 2.2-3l1.5-2.4c1-1.4 1.5-2.8 2-4.4.4-.9 1-1.6 1.4-2.4l1.6-3.2c.5-1.4 1-2.7 1.9-4 1.1-1.7 1.7-3.8 2.5-5.7l.3-.8c.1-.2.4-.3.4-.5 0-.7.5-1.3 1-1.6a14 14 0 0 1 3.5-2c.7-.3.8-.7 1.6-.7.3 0 .4-.2.7-.3h4.8c3.1 0 6 0 9-1 3.2-1 6.3-2.5 9.3-4 3.3-1.8 6.8-2.9 10.3-4.2a47 47 0 0 0 8.2-3.9c.8-.4 1.5-.8 2.2-1.4l.9-.5c1-.2 2-.7 3.1-1l2.7-.7c1-.4 2-1 2.9-1.8.7-.6 1.5-1.2 2.1-1.9 1-1 2-1.3 2.4-2.7.5-1.6 2.4-.7 3.3.1 1.1 1 2.2 2.6 2.2 4.2 0 1.1.3 3-.4 3.9-1 1.1.8 2 1.4 2.6.7.6 1.7 1 2.5 1.6l2.6 1.9c1.5 1.2 3.5 2 5.1 3 2.2 1.4 2.1 4 2.5 6.2.2.7.5.3 1 0 .5-.2 1.1-.2 1.6-.6l1.3-.8 2.4-1.5c1.5-.8 2.6-2.2 4-3.1l3.9-3c1.2-.8 2.3-1.7 3.5-2.4 2.9-1.7 5-4.5 8.2-6 .8-.3 1.4-1.2 2.4-1.5.6-.2 1-.6 1.5-1 1.2-.6 2.5-1.1 3.6-1.9.8-.6 2.1-2.2 3.2-2.2a21 21 0 0 0 5.3-.9c2-.6 4-.4 6-.6 2.6-.2 5.3-.2 7.9-.3 3.1 0 6-.5 9.1-.8 3.5-.3 7.3-.4 10.8-.4h2.5c.7 0 1.8.2 2.5-.1l3.1-1.6c1-.4 1.6-.9 2.7-.9a5 5 0 0 1 3.5 1.6c.4.5 1.1.6 1.6 1 .8.5 1.8 1 2.7 1.3h.1l1.3.7c.2 0 1 0 1.2.4.4.6 1.2 1 1.6 1.7l1.5 1.7c.7.5 1.3 1.2 2 1.6l2 1.5c1.3 1.3 2.9 2.3 4 3.8 1 1.3 2 3 3.4 3.7l3.4 2c1 .5 2.2 1 3 1.6.5.4 1.3.5 2 .8.9.3 1.6 1 2.6 1.2 1.7.4 2.9 1.6 4 2.8.5.5.9 1 1.2 1.6.3.8 1 1.3 1.5 2l2.2 3.8c.5 1 1.3 1.8 2 2.6l1.6 2c1 1 2.1 1.8 3 2.8.4.6.3 1.4.3 2 0 1.4.9 3 1.3 4.1s.5 2.7 1 3.7c.5.6.1 1.8.7 2.2.8.6.3 1.9.6 2.6.5 1.2.7 2.4 1 3.6.3 1.7.2 3.4.2 5v20.4c0 1-.5 1.6-.7 2.5-.4 2 0 4.5 0 6.6v15.3c0 3.9.5 8.3-.5 12.1-.6 2-.4 4.3-.4 6.4v16c0 1.5-.3 3.7.1 5 .2.7.1 1.4.1 2s-.3 1.9 0 2.2c.7.8.9 2 1.4 3 .1.2.5 1 .8 1.2.4.2.4.6.7 1 .6.6.8 1.7.8 2.5l.1 3.6v4.6c0 .5.2 1.2-.2 1.6l-1.6 1.5a8.2 8.2 0 0 1 -6 2.3c-3 0-6.2.5-9-.8-1.6-.9-4.3-.2-6.2-.3-1-.1-3-.3-3.8-1-.3-.2-.9-.3-1.1-.7-.2-.3-.8-.6-1-1-.2-1-1.5-1-2-1.9-.3-.6-.6-.2-1.3-.2h-7c-.3 0-1 1-.6 1 .4.2.9-.1.9.4v.7l.3 1.4.2 3.6v6.1l-.2 3.2c0 .7.3 2.3 0 3-.3.4-.8.2-1.2.5l-1.3.4h-4.5c-3 0-6.4.4-9.3-.4-.7-.2-1.3-.6-2-1-1-.5-2.1-.6-3.3-.6l-5.2-.1c-2.5-.1-5.2 0-7.7-.3-2.6-.3-5.3-.2-8-.5h-2.8a31 31 0 0 0 -4.3-.3c-2.8 0-5.4-.3-8.2-.3h-11.4l-14.8.1h-5.4c-1.6 0-3.1.3-4.7.3-7 0-14 1.2-21.1 1.3-1 0-2 .1-2.9.3-1.2.2-2.4 0-3.6.3-3 .5-6 .5-9 1l-14.5 1.6-22.6 3.5-6.4 1c-1.7.3-3.3.8-5 1-1.7 0-3.4.4-5 .5l-5.4.3c-.8.1-1.5.4-2.3.4h-2.9c-1.7.2-3.4.2-5 .2z" fill="#f9e6c8" stroke="#2c2c2c" stroke-linecap="round" stroke-width="2"/><path d="m208.4 390.3c-2 1.9-4.5 5-6.8 6.6l-4.2 2.3c-.3.2-1 2.5-1 3.2v2.1l.2 2.3v1.2c.1.4 0 1.6.6 1.6.4 0 .7-.2 1-.3.2 0 .2-.3.4-.3h2.8c.7.1 1.4 0 2 .2h1.2c.3.2.7.2 1 .2l.9.1 1 .1c.6.3 1.5.3 2.2.6l2.1.8c2.5 1 5 2.5 7.6 3 .4 0 1 .5 1.2.8.5.3.7.5.8 1 .2.6.6 1 .6 1.5l.1 1.2c.1.6-.1 1.5.7 1.7.7.1 1.3.2 2.1 0 .7-.3 1.4-.2 2-.4.4-.1.6.1.7-.4 0-.2.3-.4.4-.5a11 11 0 0 0 2.1-4.2c.3-1 1-2 1.5-2.8.3-.4.4-1 .7-1.5l.8-1.4c.6-1.2 1.5-2.5 1.5-3.7 0-1-.4-2-.4-3 0-.6-.4-1.3-.5-2l-.1-2.2v-2.2l.2-2c0-.5 0-1.3.3-1.8l.4-1.4c.1-.2 0-.5.2-.7l.4-1.5.4-1c.2-.3.5-.7.6-1.1l.3-1.2.6-2.6v-1.6c0-.3.1-.6-.2-.5l-2.3 1-1 .5c-.3 0-.7 0-.9.3l-.6.4c-.2.1-.2.3-.3.5-.5.3-.7 1-1 1.5-.5.6-.9 1.3-1.2 2-.3.4-.4 1-.5 1.5-.1.6-.4 1.3-.4 2 0 .4-.1.7-.3 1.1-.2.5-.2 1-.5 1.4v.5l-.2.4c0 .3-.4.9-.6 1-.5.4-1.3.2-1.6-.3-.2-.5 0-1.4 0-2 0-.4.4-.9.4-1.3v-7.4l.2-2.9v-3.2l-.2-1-.5-2.1c-.1-.9-.6-1.8-1-2.6l-.6-1.7a2 2 0 0 0 -.6-.8c-.1 0-.1-.2-.3-.2s-.5-.3-.6-.4c-.1-.2-.3-.2-.3-.4s-.2 0-.2.1v1.3c0 .5-.3 1.2-.6 1.7-.6 1-1 1.9-1.6 2.7l-.8 1.2-.5 1.2c-.6 1-1.5 2-2.2 3-.3.4-.5 1-.9 1.3-.4.4-.7 1.1-.8 1.7-.1.5-.4.9-.4 1.4 0 .4-.2.7-.3 1-.2.7-.7 1.1-1.1 1.6l-.8 1-.7.6-.7.6c-.3.1-.6.5-.8.7l-1 .9z" fill="#ff8c00" stroke="#2c2c2c" stroke-linecap="round" stroke-width="2"/><path d="m100 48.3-.2 11.5v4l.2.4v.6l.3 1.4.3.9.4 1.1.6 1.8.2.8.2.2.9 1.4c.5.6.7 1.4 1.1 2.1l1.8 3.5 1 2 1.1 2.1c.5.8.8 1.9 1 2.7l.3 1-.1.7c0 .5-.8 1-1.2 1.2-.2.1-.5.3-.8.3l-1 .5-1.3.8c-.4.2-.5.5-.8.8-.6.7-1.9 1.3-2 2.3-.2.6-.4 1.4-.2 2 .3.7.8 1.2 1.4 1.7 1 .8 1.6 1 2.7 1 1 0 1.9-.2 2.8-.5l1.4-.4c.3-.2.5-.2.9-.2.1 0 0-.2.2-.2.3 0 .6 1.1.8 1.3l1.6 3 .7 1 1 1c.5.8 1.2.5 2 .4 1 0 2-.4 3-.8 2-1 4.2-1.5 5.4-3.6.4-.6 1-1.2 1.6-1.7l1.9-1.5.7-.5c.7-.6 1.5-1.2 2.3-1.6.5-.3 1-1 1.7-1 1.3 0 2.5 0 3.8.3l1 .2h.6c.3.1.6 1 .8 1.3.2.4 1 1.2 1 1.6v2.8c-.2 1-.8 1.8-1.2 2.7-.3 1-.6 1.6-1.5 2.1l-1.3 1-1.3.5c-.8.3-1.6.8-2.4 1l-1 .5-1 .2-2 .7-1 .2-.6.3-1.8.3c-.6 0-1.1.3-1.7.4-.2 0-.4.2-.5.3-.3.1-.6.1-.8.3l-1.1.7c-.9.8-.3 2.5-.2 3.5 0 .7.6 1.5 1 2l.7.8.5.7 1.8 1.5 1.4 1c.5.5 1 1 1.6 1.3 1 .5 2.2.7 3.2 1.4.7.4 2 .5 2.8.7 1.5.3 2.9.8 4.3 1 1 .2 2 .6 2.9.6.6 0 1-.2 1.6-.3l3.1-.7 5.8-1.7 2.9-.8 2-.7c.6-.3 1.4-.3 2-.6.5-.4 1.2-.4 1.8-.7.6-.4 1.3-.5 2-.8.7-.4 1.7-.7 2.5-1.2l2.3-1.6 2.2-1.6 2.3-1.9a112.4 112.4 0 0 0 3.2-3.7l.9-1.6c.3-.5.6-1.1 1-1.5l1-1.3c.2-.3.3-.8.6-1 .9-1.2 1.2-2.7 1.6-4 .5-1.5 1.1-3 2.2-4.2.5-.7 1-1.5 1.3-2.3.2-.4.6-.9.6-1.3v-.8l-.1-3v-1.7l.1-2v-2l-.1-1.1c0-.7-.5-1.3-.7-2-.3-.8-.4-1.7-1-2.5a4 4 0 0 1 -.4-2.3c0-.8.4-1.4.5-2 0-.5.1-1.4.7-1.5.3 0 .6-.4 1-.5.5-.3 1-.7 1.6-.8l.6-.2c.2-.2.6-.3.8-.3l1-.5 1-.4 1.1-.6 1.1-.8c.2-.1.6-.3.7-.5l.4-.4.7-.7.6-1.2c.3-.4.6-.8.6-1.3v-1.6l-.1-2-.3-1.5c0-.8-.5-1.6-.7-2.4-.2-.6-.5-1.2-.9-1.7a12 12 0 0 0 -1.5-1.9 2 2 0 0 1 -.8-1l-.7-.6-.3-.3-1.1-.5c-.6-.3-1.3-.4-2-.4-.6 0-1 .3-1.6.3l-1.2.1-1 .1c-.3 0-1 0-1-.3l-.3-1c-.2-.9-.7-1.6-1.2-2.3l-2-3.1c-1-2.2-1.7-4.4-2.5-6.7-.3-.6-.4-1.3-.8-2-1-1.5-2.5-2.6-3.6-4.1l-1.2-1.4c-.3-.3-.5-.7-.8-.8-.4-.2-.8-.7-1.2-1l-2.1-2.1-2.4-2.5c-1.4-1.4-3-2.3-4.6-3.5-2.2-1.6-4.9-1.8-7.5-1.8-4 0-8-.1-12 .2a78 78 0 0 0 -6.9.8l-4.5.6a32.7 32.7 0 0 0 -12 5l-5.8 4-3.6 2.8c-1 .8-1.7 1.8-2.5 2.7a12.8 12.8 0 0 0 -3.5 5.3 29 29 0 0 0 -.8 5.2v6.7z" fill="#f3d4ca" stroke="#2c2c2c" stroke-linecap="round" stroke-width="1.5"/><path d="m117.3 99.2c0 1-1 2-1 3.2v.2c.7.4 1.7 0 2.4 0 .4 0 .8-.3 1.1-.5l1.2-.5a9 9 0 0 1 1.2-.6c.3 0 .8-.4 1-.6l1.4-1c.3-.1.6-.5.8-.7.6-.6 1.3-1 1.9-1.7l1.5-1.4c.3-.1.8-.6.9-.8.1-.3.6-.6 1-.8.3-.2.5-.5 1-.7l1-.7c.4-.3.3-.6.3-1 0-.6 0-1-.4-1.5l-.2-.3-.3-.1c-.2-.2-.7-.3-1-.3a2 2 0 0 0 -1-.3l-1.6.1c-.6 0-1.2.3-1.7.5-.3 0-.8 0-1 .3-.5.5-.6 1.1-.7 1.8-.2.8-.1 1.8-.7 2.4-.4.4-1-.2-1.5-.3-1.2-.3-2.7-1-3.7-.1-.4.3-.6.7-.9 1.1-.2.3-.4 1-.4 1.3 0 1-.6 2-.6 3z" fill="#f6bcb4" stroke="#2c2c2c" stroke-linecap="round" stroke-width="1.8"/><path d="m156.8 34.5c-.3.2-1 .8-1.3.5l-.3-.2c-.8-.4-1.1-.8-1.8-1.3l-.5-.4-.8-.5-1.4-.5c-1.2-.8-2.6-1.2-3.8-2l-1.4-1-1.4-1c-.2-.1 0-.2-.4-.2h-3.1c-.5 0-1.2-.1-1.6.1l-.5.4c-.9.4-2 .5-2.9.8-1 .3-2.2.5-3.3.5l-2 .1h-1.3c-.3-.2-.9 0-1.2 0s-.6-.1-.8 0l-.8.4-1.2.6c-.2.1 0 .2-.2.3l-.5.3-1.3.6c-.7.4-1.7.5-2.5.7-.7.2-1.5 0-2.1 0-.2 0-.8.2-.6-.1v-.3c-.3 0-.8.7-1 1-.3.2-.5.4-.6.7-.2.2-.2.5-.3.7-.1.3-.6.7-.8 1l-.6.8c-1.1 1.4-2 3-3.4 4.3-.5.5-1.2.8-1.9.9l-1.4.2c-.3 0-.4 0-.4.3 0 .7-.3 1.2-.4 1.8l-.4 1.2v1c-.1.6-.4 1.3-.4 2v10.5c0 .5.4 1 .5 1.6v6.1c0 .4.4.7.5 1.1v.7h.3c.3.2.7.2 1 .3l1.8.3c2.1.2 4.2 0 6.2-.2 1.6-.1 3-.7 4.5-1.2a32 32 0 0 0 3.9-1.6c2.2-1 4.2-2.6 6.4-3.8 1-.6 2-1.2 3-2 .7-.4 1.6-1 2.2-1.7.3-.4.9-.7 1.3-1l3.2-2.3 2.5-2.2c.8-.7 1.8-1.1 2.7-1.7l1.7-.9c.7-.3 1.5-.8 2.3-1 .6-.1 1-.6 1.6-.8l1.8-.8 1.8-.8c.6-.2 1.2-.2 1.8-.5 1.1-.5 2.3-.8 3.5-1.2l3.6-.6 1.3-.2 2.3-.3h3.5c.4 0 .5 0 .6.4.4.8.9 1.6 1 2.4 0 .3.3.3.2.6 0 .4-.3 1-.7 1.2-.5.4-1 .9-1.8 1l-1 .2-1.8.5-2 .4c-.6.1-1.2 0-1.8.3-.6.2-1.3.2-1.9.5-1.3.5-2.6 1.2-4 1.6l-1.8.4-.8.3c-.4.2-.4 0-.4.5v3.5c0 .3-.1 1.4.1 1.7.2.2.2 1 .2 1.3v1.8c0 .4.2 1.1 0 1.4l-.5 1.3a6 6 0 0 1 -.7 1.3l-.4.8-.2.7v.4c-.4.4.1 1.3-.2 1.7-.2.1-.2.4-.4.6l-.7 1-1 1c-.5.4-.4 1-1 1.2l-1 1c-.3.3-.8.5-1.2.7l-.8.5-1.9 1.3c-1.1.6-2.3 1.3-3.5 1.7-1.5.5-3 1.2-4.5 1.4-1.7.2-3.3.2-5 .2-1 0-2.9.1-3.5-.9-.3-.3-.8-.8-1.2-1-.4-.1-.7-.6-1-.9l-.5-.6a2 2 0 0 1 -.6-1l-.7-1.5v-1.7c-.2 0-1.6-.2-1.6 0v3l-1.3 2.9c-.2.5-.5.8-1 1.2l-.5.8-.1.4-.7.5-.5.6c-.3.2-.3.8-.6 1-.3.4-1 .8-1.1 1.2-.3.7-1 1-1.7 1.5l-1.1.8c-.3.1-.5.3-.8.3-.2 0-.7 0-.8.2l-.6.2-.5.2c-.4 0-1.1.5-1.5.2-.1-.1-.3 0-.4-.2l-.3-.6c-.1-.1-.2-.2-.2-.5l-.3-1-.1-.5-.4-.7-.4-1.2c0-.7-.5-1.2-.7-1.7-.5-1.2-1.4-2.1-2.2-3.1l-1-1.6-1.1-1.8c-.9-1.5-2.3-2.7-3-4.3-.2-.1-.3-.6-.4-.7s0-.4-.2-.5l-.1-.7v-3.2l.1-1.5.1-2v-5.9c0-.7.3-1.5.3-2.3 0-1 .4-2 .4-3 0-.5.2-1 .3-1.4v-1.5l.2-1.6c.2-2.2.5-4.4 1-6.6s2.2-4 3.5-5.8l3-4.3.7-1c.4-.8 1-1.2 1.6-1.7l2.3-1.6 2.7-1.5 3-1.8 2.5-1.1 3.2-1.2c1-.3 2.2-.7 3.3-.7h7.1l3.2.2c1 0 2.1.3 3.2.5.8.1 1.7.2 2.5.5l2 .6 1.4.4 2.5 1.2 1.3.8c.4.2.8.2 1.1.5l2.6 1.5 1 .6c.3.1.2.2.3.3l.6.7.4.6c0 .2.2.3.3.5l.3.6c.2.3 0 1.3 0 1.7l-.3 1.5v.6l-.2.6c0 .4 0 1-.4 1.2z" fill="#ecbaaa"/><path d="m100 48.3-.2 11.5v4l.2.4v.6l.3 1.4.3.9.4 1.1.6 1.8.2.8.2.2.9 1.4c.5.6.7 1.4 1.1 2.1l1.8 3.5 1 2 1.1 2.1c.5.8.8 1.9 1 2.7l.3 1-.1.7c0 .5-.8 1-1.2 1.2-.2.1-.5.3-.8.3l-1 .5-1.3.8c-.4.2-.5.5-.8.8-.6.7-1.9 1.3-2 2.3-.2.6-.4 1.4-.2 2 .3.7.8 1.2 1.4 1.7 1 .8 1.6 1 2.7 1 1 0 1.9-.2 2.8-.5l1.4-.4c.3-.2.5-.2.9-.2.1 0 0-.2.2-.2.3 0 .6 1.1.8 1.3l1.6 3 .7 1 1 1c.5.8 1.2.5 2 .4 1 0 2-.4 3-.8 2-1 4.2-1.5 5.4-3.6.4-.6 1-1.2 1.6-1.7l1.9-1.5.7-.5c.7-.6 1.5-1.2 2.3-1.6.5-.3 1-1 1.7-1 1.3 0 2.5 0 3.8.3l1 .2h.6c.3.1.6 1 .8 1.3.2.4 1 1.2 1 1.6v2.8c-.2 1-.8 1.8-1.2 2.7-.3 1-.6 1.6-1.5 2.1l-1.3 1-1.3.5c-.8.3-1.6.8-2.4 1l-1 .5-1 .2-2 .7-1 .2-.6.3-1.8.3c-.6 0-1.1.3-1.7.4-.2 0-.4.2-.5.3-.3.1-.6.1-.8.3l-1.1.7c-.9.8-.3 2.5-.2 3.5 0 .7.6 1.5 1 2l.7.8.5.7 1.8 1.5 1.4 1c.5.5 1 1 1.6 1.3 1 .5 2.2.7 3.2 1.4.7.4 2 .5 2.8.7 1.5.3 2.9.8 4.3 1 1 .2 2 .6 2.9.6.6 0 1-.2 1.6-.3l3.1-.7 5.8-1.7 2.9-.8 2-.7c.6-.3 1.4-.3 2-.6.5-.4 1.2-.4 1.8-.7.6-.4 1.3-.5 2-.8.7-.4 1.7-.7 2.5-1.2l2.3-1.6 2.2-1.6 2.3-1.9a112.4 112.4 0 0 0 3.2-3.7l.9-1.6c.3-.5.6-1.1 1-1.5l1-1.3c.2-.3.3-.8.6-1 .9-1.2 1.8-2.7 2.2-4 .5-1.5 1.4-2.5 2.4-3.7.6-.6.1-2 .5-2.8.2-.4.6-.9.6-1.3v-.8l-.1-3v-1.7l.1-2v-2l-.1-1.1c0-.7-.5-1.3-.7-2-.3-.8-.4-1.7-1-2.5a4 4 0 0 1 -.4-2.3c0-.8.4-1.4.5-2 0-.5.1-1.4.7-1.5.3 0 .6-.4 1-.5.5-.3 1-.7 1.6-.8l.6-.2c.2-.2.6-.3.8-.3l1-.5 1-.4 1.1-.6 1.1-.8c.2-.1.6-.3.7-.5l.4-.4.7-.7.6-1.2c.3-.4.6-.8.6-1.3v-1.6l-.1-2-.3-1.5c0-.8-.5-1.6-.7-2.4-.2-.6-.5-1.2-.9-1.7a12 12 0 0 0 -1.5-1.9 2 2 0 0 1 -.8-1l-.7-.6-.3-.3-1.1-.5c-.6-.3-1.3-.4-2-.4-.6 0-1 .3-1.6.3l-1.2.1-1 .1c-.3 0-1 0-1-.3l-.3-1c-.2-.9-.7-1.6-1.2-2.3l-2-3.1c-1-2.2-1.7-4.4-2.5-6.7-.3-.6-.4-1.3-.8-2-1-1.5-2.5-2.6-3.6-4.1l-1.2-1.4c-.3-.3-.5-.7-.8-.8-.4-.2-.8-.7-1.2-1l-2.1-2.1-2.4-2.5c-1.4-1.4-3-2.3-4.6-3.5-2.2-1.6-4.9-1.8-7.5-1.8-4 0-8-.1-12 .2a78 78 0 0 0 -6.9.8l-4.5.6a32.7 32.7 0 0 0 -12 5l-5.8 4-3.6 2.8c-1 .8-1.7 1.8-2.5 2.7a12.8 12.8 0 0 0 -3.5 5.3 29 29 0 0 0 -.8 5.2v6.7z" stroke="#2c2c2c" stroke-linecap="round" stroke-width="1.5"/><path d="m101.5 61.5c.2-.4.2-.9.2-1.4v-1l.1-1v-2c.2-.6 0-1.3.3-1.8l.1-.8.1-3a65.1 65.1 0 0 1 .7-7.6l.5-1.7.2-1.6v-1.6c0-.3.5-.2.7-.1 1.4.2 2.9-.4 4.2-.9a5 5 0 0 0 2.8-2l1-.9.8-1 .8-1.4 1-1.5.8-1.4.2-.4h.4l1.8-.2c.5 0 1 0 1.5-.3l2.8-1.5c.8-.4 1.4-1 2.1-1.5l.4-.4.2-.3c.2-.2 1 .2 1.2.2 1.4.3 2.9 1 4.4 1 .2 0 .4-.4.5-.5l.6-.5c.2-.3.6-.3.8-.4l2.1-.5c1.2-.2 2.3-.7 3.4-1 .7-.3 1.4-.8 2.1-.8h1.9c.8.3 1.9.6 2.6 1.1l1.1.8c.3.3.7.4 1 .6l1.2.7a22.2 22.2 0 0 1 2.7 3l.6.5c.4.2 1.2 0 1.7 0s1.3-.3 1.8 0c.3.3.5.8.8 1l.8 1c.5.8 1 1.4 1.3 2.1.2.3.5.6.8.7l1 .7c.6.2 1.1.5 1.7.6l2.7.2 4.5.1c1 .1 2 .4 2.9.7l1.9.7c.3.2.6.2 1 .2h.5l1 1c.2.3.1 0 .3-.2.4-.3.5-1 .8-1.4s.6-1 1-1.3c.6-.3 1.1-.4 1.6-.5.3-.1 2.7-.3 2.7-.5 0-.5-.4-.5-.8-.7l-1.5-.9-.9-.6-1-.6c-.2-.2-.6-.6-.7-1-.1-.5-.4-1-.7-1.6l-1-3-.5-2.3c-.2-.9-.6-1.7-.9-2.6-.2-.6-.5-1.4-1-1.8-.4-.5-1.1-1-1.7-1.3-.5-.3-1-.6-1.3-1l-.9-.6c-.3-.1-.2-.3 0-.5l.5-1.2.4-.8.6-1 .6-1.4c.2-.4.2-.4-.2-.4-.2 0-.3 0-.5.2h-.4l-.8.3c-.9.1-1.7.4-2.5.6-1 .2-2.2 0-3.2 0s-2-.4-3-.6c-.4 0-.8-.4-1.2-.4a2 2 0 0 1 -.7-.3l-.8-.3-1-.5-.7-.4c-.1 0-.3 0-.5-.2l-.5-.3-.8-.5-3-1.4c-1.5-.4-2.8-1.3-4-2.3a9 9 0 0 0 -2.6-1.5c-.5-.1-1.1 0-1.6 0h-3.2l-1.6.1c-.4 0-1 0-1.4.2l-.7.2-.4.2-.5.1a9 9 0 0 1 -1.3.5l-1.2.5c-.4 0-.7.4-1 .5-.5.2-.9.5-1.2.8-.3.4-.8.7-1.2.9-.5.2-1 .6-1.4.9h-.1l-1.9 1-.9.5c-.4.3-1.1.3-1.6.3h-2c-1.3 0-2.8 0-4 .6-1.2.5-2.2 1.1-3.1 1.8-.2.1-.5.2-.5.4l-.6.6-1.2 1.1c-.6.8-1.7 1.3-2.2 2.1l-1.2 1.8c-.4.5-.8 1.2-1 1.8-.1.5-.3 1-.6 1.4l-1 1.2-.4.6-.1.2h-3.9l-1.6.2h-2c-.5 0-1 0-1.3.3-.1.1-.3.3-.5.3l-.5.4c-.7.4-1.2 1-1.8 1.5l-1.6 1.5-.4.6-.4.5-.3.4-.5.7-.7.8-.2.4-.4.6-.5 1.2c0 .3-.3.5-.3.8l-.2 1.2-.1 1.5c-.1.5 0 1.2-.2 1.7l-.4 2.3v3.6c0 .7-.3 1.4-.4 2l-.4 2c0 .5-.3 1-.4 1.5l-.4 1.5-.3 1c-.2.3 0 0 .1 0l.4-.3.4-.3 2.1-1.5 2.6-2.2.4-.4s0-.1 0 0v.4l-.1.6-.2 1.8v1.7l-.1.8v1c0 1.6-.4 3-.4 4.6v1.5c0 .2 1.2-.4 1.4-.6.7-.6 1.6-1 2.1-2l.4-1c.2-.2.1.1.2.2v.8l.1.6.1.5v.8c.2.3.1.8.1 1.2v1.5c0 .2 0 .4.3.4.2 0 .4-.3.5-.4.2-.3.6-.6.7-1 0-.2.5-1.1.7-.9l.1.5.1.6c0 .7-.2 1.8.2 2.5.1.3.8.2 1 .2.5 0 .9-.3 1.3-.4.4-.2.6-.7.8-1.1z" fill="#834f43" stroke="#2c2c2c" stroke-linecap="round" stroke-width="1.3"/><path d="m158.1 35.8.2 1.5v.4c.2.4.5 1 1 1h1.8c.4 0 .8 0 1.2-.2l1-.2.5-.1c.2 0 .3-.5.4-.6.4-.4 1.2 0 1.5.4.7.7 1.6 1.2 2 2.2l.4.6c.2.2.2.5.3.7l.6.6.5.8.5 1 .4.7.8 1.6 1 2.6 1 1.7c.3.5.9 1 1 1.5.1.2.4.4.4.7 0 .2.3.4.4.6.4.6.8 1.1 1 1.8.3.7.8 1.1 1 1.8l.7 1.4.4 2c.3.9.4 2 .4 3l.1 2.3c0 .7.2.8.9.8l.7-.4.7-.3c.4-.2 1-.7 1.2-1.1.4-.8.7-1.6.7-2.4 0-1.1-.5-2-.5-3.1l-.2-.8-.1-.8c-.2-.4 0-1.1-.3-1.5l-1-1.7-.3-.8c0-.1 0-.5-.2-.6l-.2-.6-.2-.6c-.3-.4-.5-1-.6-1.4s.1-.7.4-1l.1-.2.2-.2.4-.3c.2-.2 1-.4 1.3-.4s-.1-1-.3-1l-.2-.7-.4-.8c-.4-.6-.8-1.2-1-2-.5-1.1-1.3-2.1-2-3.2-.2-.4-.5-.8-.6-1.3-.2-.6-.7-1.2-.7-1.8 0-.3-.7-.8-1-1-.3-.3-.9-.4-1.2-.8l-1.5-.9c-.4-.3-.8-.6-1.3-.7-1.2-.6-2-2-3.1-2.5-.5-.3-1-.4-1.6-.5l-.6-.1c-.3 0-.4 0-.5.3-.3.5-.5 1.2-.5 1.8s-.3.6-.9.6c-.4 0-1.3 0-1.6-.4-.3-.2-.5-.6-1-.8l-.4-.6c-.1-.4-.2.1-.3.2 0 .2-.5.8-.7.8-.5 0-.8.2-1.3.4l-.5.4c-.3.2-.4.2-.4.5z" fill="#673e35" stroke="#2c2c2c" stroke-linecap="round" stroke-width="1.3"/><path d="m101.8 63.8c.6-.3 1.5-1.2 2-1.2l.5-.4c.2-.1.3-.6.6-.6.4 0 .7-.3 1.2-.3l1.3-.1c1.1-.1 2-.8 3.2-.8 1 0 2 0 2.9.6.6.5 1.7.9 2.1 1.6.5.9 1.3 1.5 2 2.4 0 .1 1 1.3 1 .9 0-.3.2-.8.4-1l2.1-.6c1-.1 2 0 2.7-.3.5-.1.9 0 1.3-.4l.7-1c.3-.7.1-1.6.4-2.3l.3-1.3c0-.5.5-1 .5-1.6l.8-2c.3-.4.3-1 .6-1.5l.8-1.5c0-.4.4-.7.7-.9a6 6 0 0 1 2.6-1l1.1-.2c.5 0 1 0 1.4-.3l3.3-1.4 2.1-.9 2-.4c.6-.2 1.5-.3 2.1-.3.4 0 1.4 0 1.8-.2.3-.2 1.1-.3 1.5-.4.7 0 1.4-.2 2-.3.6 0 1.2-.2 1.7-.5.3-.2 1-.3 1.2-.5.6-.6 1.4-1 1.6.2 0 .6.2 1.3.5 2 .3.5.5 1 .5 1.6 0 1-.7 1-1.4 1.6l-1.4 1c-1 .4-.7 1.1-.6 2 0 .2.1 1 .3 1 .2.4 0 1.2.2 1.6s.3 1.2.3 1.6l.2 1.6c0 .8 0 1.6-.4 2.4-.5 1.3-.8 2.7-1.4 4-.2.4-.3 1-.7 1.4-.2.2-.6.7-.6 1 0 .2-.5.5-.7.7l-1 .8-2 1.5c-1 .7-1.9 1-3 1.6a27 27 0 0 1 -3.9 2l-2.8.9c-.7.3-1.6.7-2.4.7h-4c-1-.2-1.3-.7-1.6-1.6-.3-.7-.8-1.2-1-1.9l-1.2-2.5c-.5-1-1.6-1.7-2.4-2.6-.2-.3-.2-.6-.6-.6-.5 0-1 .1-1.4.4-.6.3-1.3.6-1.8 1-.3.3-.9.4-1 .8l.1 1.6c.1.4 0 1 .2 1.5.4.9.4 1.9.4 2.9 0 1.3-.4 2.7-1.5 3.5l-.7.7-1.5 1.5c-.6.4-1 1-1.8 1.2l-1.6.6c-1 .2-2.2 0-3.2 0s-2.2.1-3.1-.3c-.6-.3-1.1-.4-1.6-1-.6-.4-1.3-.6-1.9-1.2-.5-.4-.7-1.1-1-1.6-.5-.5-.4-1.4-.7-1.9-.2-.2-.4-.8-.4-1 0-.3-.2-1.1-.4-1.3-.2-.3-.2-1-.4-1.4l-.4-1c-.3-.6-1.1-1.6-2-1.6a3 3 0 0 0 -1 .4l-1.2.6c-.3.2-2 .8-2.2.2-.2-.7.4-1.6.4-2.4l.3-1c0-.3.5-.4.6-.6l.9-.5 2-.8 1.6-1c.3 0 .7-.5 1-.5.7-.1 1.3-.7 1.8-1z" fill="#ebeeef" stroke="#2c2c2c" stroke-linecap="round" stroke-width="1.3"/><path d="m240.6 133.3c0 1-.5 1-1.4 1.9l-.5.5-1 1.2c-.5.6-.5 1-1 1.5-1.6 1.8-.7.3-2 2.3a16 16 0 0 1 -1.5 2c-.5.5-1.6 2.1-1.9 2.7-.2.5-1.7 3.2-2.1 3.7-.8.7-1.4 2-2.2 2.9-.8 1-1.5 2-2.1 3.2a16 16 0 0 1 -1.4 1.7c-1.2 1.2-1.7 1.7-2.7 3-.6 1-1.7 1.7-2.5 2.5l-1.3 1c-.3.2-.3.6-.5.8l-.8 1.2c-1 1.4-2.8 3.1-3.3 4.8-.2 1-.3 2-.6 2.8-.3 1-.1 2.3-.6 3.1-.2.7 0 1.7 0 2.4l-.2 2.1c0 1-.4 1.7-.4 2.6 0 .7 0 1.2-.3 1.8a12 12 0 0 1 -3.1 3.5c-.5.4-1 1.1-1.8 1.1-1.4 0-1.4-.1-1.7-1.4-.7-2.5-.3-5 0-7.5 0-1.1.5-2.2.9-3.3.4-1 .8-2.4 1.5-3.4.2-.3.6-1.2.6-1.6 0-.9 1-2.6 1.4-3.4.7-1.2 1.6-3.3 2.8-4.2.9-.7 1.8-2.7 2.1-3.7.3-.9 1-1.9 1.4-2.6.5-.7.8-1.7 1.1-2.4a48 48 0 0 1 6.7-10.5c1.2-1.2 2-2.8 3-4l2.2-2.3c1-1 2.3-1.7 3.3-2.6l5.8-4.7c.3-.3 1.3-1 1.4-1.4.2-.5.3-.8.8-.8.8 0 2.4 0 2.4 1s-.5 1.7-.5 2.5zm6.8 15.2c.3.8-.2 1-.8 2.2l-.2.7-.6 1.4-.5 1.8c-.9 2.2-.5.4-1 2.8l-.8 2.4c-.3.6-.8 2.5-.9 3.1 0 .6-.5 3.7-.8 4.2-.5 1-.7 2.4-1 3.5a19 19 0 0 0 -1 3.7l-.8 2.1c-.7 1.5-1 2.1-1.5 3.8-.3 1-1 2.1-1.5 3.1l-1 1.3-.1 1-.3 1.4c-.6 1.7-1.7 3.9-1.6 5.7l.4 2.8c0 1 .6 2.1.5 3.1 0 .7.5 1.6.7 2.2l.5 2.1c.3.9.3 1.8.6 2.6.2.6.4 1 .3 1.8-.3 1.6-1 2.9-1.8 4.3-.4.6-.6 1.4-1.3 1.7-1.3.4-1.4.3-2.1-.8-1.5-2.1-2-4.6-2.6-7.1-.2-1-.2-2.2-.2-3.3 0-1.2 0-2.6.3-3.8 0-.4.2-1.3 0-1.7-.2-.8.1-2.8.3-3.6.2-1.5.4-3.7 1.2-5 .6-1 .8-3 .8-4.2 0-1 .2-2 .4-2.9.3-.8.2-1.8.3-2.6.5-4.1 1.1-8.3 2.8-12.1.7-1.6.9-3.3 1.5-4.8l1.3-3c.6-1.2 1.5-2.3 2.3-3.5l3.8-6.3c.3-.4 1-1.3 1-1.8-.1-.5 0-.8.4-1 .7-.3 2.3-.8 2.6.1s0 1.8.4 2.6z" fill="#ebdabd"/><path d="m239.2 148.7c.3.9-.1 1.1-.7 2.3l-.2.6-.7 1.4c-.2.8-.1 1.1-.4 1.8-1 2.3-.5.5-1 2.8l-.8 2.4c-.3.6-.8 2.6-1 3.2l-.7 4.2c-.5 1-.7 2.4-1 3.4a19 19 0 0 0 -1 3.7l-.8 2.2c-.7 1.5-1 2-1.5 3.7-.3 1.1-1 2.2-1.5 3.2l-1 1.3c-.1.3 0 .7-.2 1-.1.4-.1 1-.3 1.4-.5 1.7-1.6 3.8-1.5 5.6 0 1 .3 2 .3 2.8 0 1 .7 2.2.6 3.2 0 .7.4 1.5.7 2.2l.5 2c.3 1 .2 1.8.5 2.6.3.7.4 1.1.3 1.8-.2 1.6-1 3-1.8 4.3-.3.6-.5 1.5-1.2 1.7-1.3.5-1.4.3-2.1-.8-1.5-2-2-4.5-2.6-7-.2-1-.2-2.3-.2-3.4 0-1.2 0-2.6.3-3.7 0-.4.2-1.4 0-1.7-.3-.9 0-2.8.3-3.7.2-1.4.4-3.6 1.2-4.9.6-1 .7-3.1.7-4.2 0-1 .3-2 .5-3 .2-.7.1-1.7.2-2.6.6-4 1.2-8.2 2.9-12 .7-1.6.8-3.3 1.5-4.9l1.3-2.9c.6-1.2 1.5-2.3 2.2-3.5 1.4-2.1 2.6-4.2 3.9-6.4.2-.3 1-1.3.9-1.7 0-.5 0-.9.5-1 .7-.3 2.3-.9 2.6 0 .3 1 0 1.9.3 2.6z" fill="#ebdabd"/><path d="m100.9 68.1a2 2 0 0 1 -.8.3l.3.4c0 .2 0 .5.2.7l.5 1.3.5 1.3c.2.4.6 1 .6 1.5l.2.7c.1.2 0 .6.2.9s.4 1 .4 1.3c0 .5.4 1 .7 1.5.4.5.6 1.2 1.2 1.5 1.1.7 2.6.4 3.9.4l1.8-.3c.5 0 1.3-.3 1.7-.5 1-.5 2-.8 2.7-1.4.9-.7.8-1.5.8-2.6v-3c-.1-1-.8-1.8-1-2.8l-.6-1.4c-.1-.4-.5-.9-.8-1.2l-2.1-2.4c-.2-.2-.2-.4-.6-.3a4 4 0 0 0 -.6.3c-.4.2-1 .6-1.3.6-1 0-1.8.6-2.7.8-.6 0-1.2.6-1.7.8l-1.4.5-.7.4c-.3 0-.4.3-.7.3s-.5.3-.7.4z" fill="#ffded3"/><path d="m99.4 68.4c.5 0 1 0 1.5-.3.2-.1.4-.4.7-.4s.4-.3.7-.3l.7-.4 1.4-.5c.5-.2 1.1-.8 1.7-.8 1-.2 1.6-.8 2.7-.8.4 0 1-.4 1.3-.6l.6-.3c.4 0 .4 0 .6.3l2.1 2.4c.3.3.7.8.8 1.2l.5 1.4c.3 1 1 1.8 1 2.8l.1 3c0 1.1 0 2-.8 2.6-.7.6-1.8 1-2.7 1.4-.4.2-1.2.5-1.7.5l-1.8.3c-1.3 0-2.8.3-3.9-.4-.6-.3-.8-1-1.2-1.5-.3-.4-.7-1-.7-1.5 0-.3-.2-1-.4-1.3l-.2-1-.2-.6c0-.4-.4-1-.6-1.5l-.5-1.3-.5-1.3a3 3 0 0 1 -.2-.7c0-.2-.3-.3-.3-.5" stroke="#2c2c2c" stroke-linecap="round" stroke-width="1.3"/><path d="m110.4 75.8v-2c0-.7.4-1.4.4-2.1l.2-3.6" stroke="#ffebe4" stroke-linecap="round" stroke-width="2"/><path d="m138.4 51.5c.7 0 1.3-.4 2-.4l1.6-.2c.6 0 1.1.4 1.7.5h1l1 .2c.5 0 1 .9 1.5 1.2.4.3.5 1.1.7 1.6.3.5.4 1.1.6 1.7.3.6.4 1.3.5 2 .2.6 0 1.1 0 1.7l-.2 2c0 .8-.1 1.1-.6 1.6l-.6.6c-.2.2-.8.4-.8.7 0 .4 0 .4-.4.6l-1 .7c-.4 0-.9.3-1.3.4l-1.2.6-1 .5-1 .5-2.1 1.2c-.5.4-1.1.5-1.6.8-.3.2-.8.5-1.1.5l-1 .2h-1.2c-.8 0-1.5 0-2.1-.3-.5-.2-1-.7-1.3-1.1l-.4-.9c-.1-.2-.1-.6-.3-.8l-.2-.9c-.1-.4-.1-.8-.3-1.1-.3-.5-.3-1.6-.3-2.2l.1-2c0-.6.2-1.4.5-1.8s.4-1.3.6-1.9c.2-.5.4-1.1.8-1.5a13 13 0 0 0 2-2.8c.4-.5 1-1 1.6-1 .3 0 .5-.3.9-.3l.8-.1c.5-.4 1.5-.5 2.1-.5z" fill="#ffded3" stroke="#2c2c2c" stroke-linecap="round" stroke-width="1.3"/><path d="m164.9 80.7c-.2 0 0 1.9 0 2 0 .5.2.9.3 1.3l.3 1.3.1.7.1.4" stroke="#ecbaaa" stroke-linecap="round" stroke-width="1.5"/><path d="m106.4 76.4v-3.7c0-.3.3-.6.3-1v-.9l-.2-.9c0-.3.1-1.7-.1-1.8" stroke="#ffebe4" stroke-linecap="round" stroke-width="2"/><path d="m218 179.5-.2 4.6c0 .8-.4 1.5-.4 2.3 0 .6-.1 1.9-.4 2.5s0 1.5-.3 2.2-.5 1.7-.5 2.4c0 .8-.3 1.6-.4 2.3l-.2 2.6m1.6-30.2c0-1.8 1.6-3.7 2.6-5 .5-.7.9-1.6 1.4-2a6 6 0 0 0 1-1.8c.1-.4.6-.7.8-1 .4-.6.8-1.2 1-1.8.4-.7 1-1.3 1.3-2 .8-1.5 2.3-2.5 2.8-4 .1-.5 1-2 1.3-2.3.6-.5.7-1.4 1.2-2 .7-.7 1-2 1.8-2.6.7-.6 1.3-1.6 1.9-2.3 1-1.1 1.6-2.8 2.7-4 1-.9 1.7-2.5 3-3.2m2.5 21.8c0 1-.8 1.9-1.3 2.8-.5 1-.8 2.1-1.4 3a8 8 0 0 0 -1.2 2.8c0 .5-.4 1.2-.6 1.6-.3.6-.3 1-.5 1.6a14 14 0 0 0 -1.3 3.4c-.9 3-1.6 6.1-2.8 8.9-1.1 2.4-1.8 5-1.8 7.6" stroke="#2c2c2c" stroke-linecap="round" stroke-width="2"/><path d="m144.5 87.9v.6l.3.3.3.2 1.2 1.2.5 1 .4.7c.2.3.3.7.3 1 0 1.3 0 2.5.2 3.8.2.7.1 1.4.1 2.1" stroke="#ecbaaa" stroke-linecap="round" stroke-width="3.3"/><path d="m236.3 153.4c0 .6-.4 2-.8 2.3s-.3 1.4-.7 1.8-.6 1-.9 1.5c-.2.6-1 1.3-1 1.9 0 .3-.4 1.4-.6 1.6-.6.4-.7 1.6-.9 2.3-.4 1-1 2.3-1 3.5 0 2-1.6 3.7-1.6 5.6 0 .5-.4 1.5-.6 2-.4.7-.5 1.6-1 2.3-.2.4-.2 1-.3 1.6a82.1 82.1 0 0 0 -.8 8.5c0 1 .4 2.8 0 3.8-.5 1.1-.5 3-.5 4.2v13.8" stroke="#2c2c2c" stroke-linecap="round" stroke-width="2"/><path d="m154.7 124.5c1.5 0 4.2-.4 5.4-1.4.5-.4 1.5-.8 2.2-1.1.6-.4 1.3-.9 2-1m-.9-39.7c0 1.3-.2 2.9.6 3.9.5.6 1 2.4 1.6 2.7m-21.2-1.9c.4 0 1 .5 1.3.7.5.2.8.7 1.2 1 .2.3.7.9.7 1.3l.6 1.4c.3.1.6 1.3.7 1.7 0 .6.3 1.3.3 2 0 1 .4 2.4.4 3.6m33.5-44.8c2.2 0 4.5.9 5.4 3 .9 2-1 5.5-2.9 6.4m-80.4 11.6c0-1 .4-1.6 1.1-2.2.5-.6 1.4-.6 2-1 .3-.3 1.8-.2 2.3-.2s1.8.2 2 .7m-13.6-41.2c2 0 5.2-.6 6.9.5m11.5-9.5c0-1 1.2-1.8 1.7-2.5.6-.8 1.7-1.3 2.4-2 .8-.7 1.8-1 2.6-1.7 1-.8 1.8-1.5 3-2 2-1 3.7-1.5 6-1.5l3 .2c.8 0 1.3 1 2.3 1m11.2 5.2c.1-.6 3.2 0 3.6 0 1.3 0 2.5.5 3.7.7 2 .5 3.6 1.3 5.8 1.3" stroke="#2c2c2c" stroke-linecap="round" stroke-width="1.8"/><path d="m78.7 246.1c-.4.4-.5.5-.5 1l-4.3 4.6c0 .3-.4.5-.5.9 0 .6-1 .8-1.2 1.4a118 118 0 0 0 -3 3.5c-1.1 1.3-2.4 2.5-3.5 3.9-.6.9-1.4 1.8-2.2 2.6-1 1-1.7 2.2-2.6 3.2l-3.2 3c-.4.3-.7.8-1.2.9h-1.2c-.5 0-.8 0-.8-.6l-.2-1.2c-.1-.8-.4-1.5-.6-2.3l-.6-3.7c-.7-2.8 0-6 .8-8.8a11 11 0 0 1 3.3-5.2c1.5-1.6 2.7-3.7 3.8-5.6.8-1.2 1.8-2.4 2.5-3.7.3-.6.8-1 1-1.5l1.5-2.2c.9-1.4 2-2.6 3-3.9l3.5-4.8 3.7-4.5c.5-.5.8-1 1.2-1.6 0 0 .5-.5.5-.7 0-.3.7-1 .9-1.2l4.1-5.3c1.6-2.1 3.1-4.3 4.8-6.3.9-1 1.6-2.1 2.5-3 1.1-1.1 2.5-1.9 3.6-2.9.7-.5 1.2-1.2 1.8-1.7s1.3-.8 2-1.2c1.1-.9 2.4-2.3 4-2.3 3 0 5.6.3 8.4.9 1.4.3 3 .5 3.9 1.7.2.3.7.6 1 .8l1.8 1c.8.7 1.8 1.1 2.5 2l3.8 3.5c1.2 1 2.6 2 4 2.8l6.2 3 2.5 1.1 1.9 1.7 2 2.2 5.5 5.3 3.7 3c1.2.8 2.5 1.5 3.6 2.5a176 176 0 0 0 7.3 6c2.3 1.9 5 3.1 7.3 5 .9.6 1.7 1.4 2.7 2 .3.3.9.7 1.3.8l1.4.1 1.7.7a51 51 0 0 1 7.7 3.8c2.5 1.5 4.7 3.4 7.2 4.8 3.3 2 7 3.2 10.4 4.6 4 1.6 8 3.8 12 5.5 5.5 2.2 11.3 3.5 16.9 5.3l5 1.8c1.1.4 2 1.2 3 1.8a30 30 0 0 1 6.8 6c.8 1 2 1.9 2.6 3.2.4 1 .2 2.2.2 3.3 0 .4 0 .8-.3 1-.5.4-.8.4-1.5.4-1.8 0-3.5-.7-5.4-1-1-.2-2-.6-3.1-.7-1-.1-2 .1-2.8.1l-2.5.3h-3.5c-1.4 0-3 .1-4.3-.3-2.8-.8-5.9-1.4-8.4-3l-1.1-.7c-.4-.2-.7-.6-1.2-.7l-3.7-1.8c-1.8-1-3.9-1.5-5.8-2.4-.6-.3-1.2-.5-2-.6-.3 0-.6-.3-1-.4l-1.4-.6c-1-.4-1.8-1-2.7-1.3l-3.7-1.4c-1-.5-2.3-.8-3.4-1.3-.8-.3-1.5-.4-2.2-.9l-4-2.2c-3-1.5-5.7-3.4-8.5-5-.9-.6-1.8-1.2-2.8-1.6-.7-.4-1.6-.6-2.1-1.3l-.8-.4-.7-.6a35.2 35.2 0 0 0 -4.2-4.1c-3.8-3.5-7.4-7.2-11.4-10.4-1-.8-2.2-1.5-3.3-2l-.2-.2-2.5-1.3-2.4-1.2-1.8-.8-4-2.5c-1.2-.6-2.2-1.4-3.3-2.1l-8.3-5.8c-2-1.4-4.2-2.9-6-4.6-.9-1-1.5-2-2.5-2.7-.8-.7-1.6-1.6-2.5-2.1-.3-.2-.5-.6-.9-.7l-.6-.5c-.5-.3-1.2-.5-1.6-.9l-1.3-1c-.4-.4-.8-.9-1.3-1-.5-.3-.8-.8-1.3-1-.4-.2-.8-.2-1.2-.2-2.5 0-4.2 2.4-5.2 4.5-.2.5-.6 1-1 1.4l-.7 1.7c-.3.6-.4 1-.4 1.7 0 .5-.4.9-.6 1.2-.5 1.1-1.2 2.2-1.8 3.2-.2.3-.5.5-.6.8 0 .2-.1.5-.3.6-.5.6-.8 1.5-1.3 2.1-.9 1.2-1.5 2.4-2.5 3.4a68.3 68.3 0 0 0 -3.6 4.3c-.8.9-1.8 1.6-2.4 2.6l-1.4 1.4-1.6 1.4-2.4 2.2-2 2z" fill="#ebdabd"/><path d="m115.8 142c0 1-.4 2.3-.1 3.3.3 1.2.7 2.6 1.2 3.7 1 2 1.6 4.5 1.6 6.7" stroke="#2c2c2c" stroke-linecap="round" stroke-width="2"/><path d="m133.5 67c0-1.3.5-2.2 1-3.3l.3-.9c.1-.2 0-.6.2-.8.3-.3.4-1.2.4-1.7 0-.8.4-1.7.5-2.6 0-.3.3-.6.3-1l.2-1.1m2.3 7.8c0-1.2.3-2 .6-3l.4-1.2c0-.3.4-.6.4-1 0-.6.7-1.3.7-2v-2m1 10.1v-2.5c0-.6.3-1.2.5-1.8l.5-2.3c.2-1 .6-1.8.9-2.7 0-.4.2-.7.3-1v-.3" stroke="#ffebe4" stroke-linecap="round" stroke-width="2"/><path d="m166.7 56h-1l-1.2-.2c-.3 0-1.2.4-1.4.5l-.8.3h-.2l-.3.2-.4.3-.4.2-.4.1-.4.4-.6.5-.7.4-.4.4c-.3.2-.7.4-.9.7a2 2 0 0 0 -.4.9v3.3c0 .5-.2 1.1 0 1.6.2.2 0 .7 0 .9l.1.7c0 .8.3 1.5.6 2.1.2.5.3 1 .6 1.4l.4.7.3.4.3.5.2.4c.2 0 .1.3.2.4l.5.5 1.4 1 .8.6.5.2c.8.1 1.5.4 2.3.4l2-.1 1-.1.3-.2h.5c.2 0 .7 0 .8-.2.1-.3.6-.4.9-.5l.6-.6.7-.7.7-.8.8-.8.4-.4.2-.2.3-.4.5-.7c.4-.7.5-1.4.6-2.1l.3-2.1.1-.6v-1.6l-.1-.5-.3-.9-.4-1.5c-.2-.5-.2-1-.5-1.4l-.4-.5-.5-.7a5.8 5.8 0 0 0 -2.2-1.8c-.5-.2-1-.5-1.6-.6h-2.7l-.7.2z" fill="#f6b1c3"/><path d="m90.5 45v-.7c0-.4.3-.7.4-1 0-.5.3-1 .4-1.4 0-.3.2-.5.3-.8l.1-.4.1-.6c.3-.6.3-1.3.6-1.9.4-.8.7-1.7 1.3-2.4a13.4 13.4 0 0 1 1.5-1.7l.4-.2m-1.5 12.7v-1.8c.2-.2.2-.5.3-.7l.3-1 .7-1.7c.2-.4.3-1 .6-1.3l.4-.7.5-.7c0-.2.2-.2.3-.4l.2-.2.2-.3.4-.4.2-.2c.1 0 .2 0 .2-.2.1-.2.7-.4 1-.5l.5-.3m-1.9 18.4v-4.3l.1-3.4.2-1.2.4-1.3.6-1.6c0-.2 0-.4.2-.6l.1-.4.3-1 .1-.6.3-.7m11-14.1v-1l.6-1.8c.2-.7.6-1.2 1-1.8l1.4-2 1.1-1.6 1.5-1.4c.6-.4 1.2-1 1.8-1.3l.7-.7 1.3-.8c.4-.3.9-.4 1.3-.6m2.3 6.5c0-.3.7-.5.9-.6l1.3-.6c.5-.2.9-.5 1.4-.6l.5-.3.6-.3.6-.2.4-.2.6-.3 1.2-.3 1-.2h3.3c.2 0 1.6-.2 1.7 0m-4.2 5c.5-.5 1.1-.7 1.7-1l1.5-1.1.8-.6c.3-.2.7-.2 1-.5.1-.2.5-.2.7-.3l.4-.1.5-.1 1-.3c.2 0 .5-.3.8-.3l1.7-.1h1l1 .4.8.4.4.3c.5.4.9.6 1.2 1.1m-6.7-10.2h1l1.3.2c1.2.2 2.2.5 3.3.9.6.2 1.3.4 1.8.9l1.6 1.3c1 .8 1.8 1.7 2.6 2.5.1.2.3.3.4.3l.5.4.5.4.6.3c.1.2.2.3.5.4l.5.3m5 11.4h2.2c.5 0 1 .4 1.4.4.3 0 .5 0 .7.2m.7-10.2v.4l.1.5c0 .3.4.5.5.7l1 1.7 1.4 2c.4.7.8 1.4 1 2.2.5 1 .7 2.2 1.1 3.3l.8 1.8.2.3.1.7" stroke="#673e35" stroke-linecap="round" stroke-width="2"/><path d="m157.4 44.6c-.8.3-1.6.4-2.4.5-.5 0-1 .6-.7 1 0 .2.2.3.3.5l.2.5c.3.2-.1.9.6.9.3 0 .6.3 1 .3l2.4-.3 3-.5 2.8-.5 4.6-.6 1.2-.2c.5-.1 1.2-.1 1.7-.3l1.7-.5c1-.2 1-.9.8-1.7 0-.4.1-.8-.3-1.1l-.7-.7c-.6-.5-2 0-2.7 0-1.7 0-3.4.4-5.2.5-.9 0-1.9.3-2.8.5l-1.4.2c-.5 0-1 .3-1.5.4-.4 0-.7.6-1.2.6a4 4 0 0 0 -1.4.5z" fill="#ebeeef" stroke="#2c2c2c" stroke-linecap="round" stroke-width="1.3"/><path d="m132.3 64c0-1.6 2.5-2.3 3.8-3 .7-.4 1.4-1 2.3-1h3" stroke="#2c2c2c" stroke-linecap="round" stroke-width="1.8"/><path d="m120.4 95.5v1.5l.1.5" stroke="#f9d6d2" stroke-linecap="round" stroke-width="1.5"/><path d="m123.4 108.6c0-.3 0-.4.2-.5h1.1l.6.2 1-.1.8-.1c.3 0 .6 0 .9-.2h.7l1-.4c.6 0 1.2-.4 1.8-.5l1.9-.6c.9-.2 1.8-.7 2.6-1l.8-.5.5-.2.7-.6s0-.2.2-.3l.1.1h.2v3.2l-.2.7v.4l-.2.3v.3h-.1v.9l-.2.8c-.2.4-.6.7-1 1l-.5.3-.5.5-.9.6-.6.2c-.6.3-1.3.3-2 .3h-1.7l-1.4-.2-1-.2c-.3 0-.6-.2-1-.4l-1.3-.8a5 5 0 0 1 -1.6-1.7l-.4-1z" fill="#f6bcb4" stroke="#2c2c2c" stroke-linecap="round" stroke-width="1.8"/><path d="m134.2 110.7h.1l.2-.2.2-.2c.2 0 .3 0 .4-.2.2 0 .4-.2.5-.3l.3-.5c0-.1 0-.3-.2-.3-.2-.1-.3 0-.4.1a8 8 0 0 1 -.9.4c-.2.1-.2.3-.3.5" stroke="#f9d6d2" stroke-linecap="round" stroke-width="1.5"/><path d="m219.8 120.6c-.5.1-1 .4-1.5.4l-2.6 2.5-1.5 1.3-.3.6-.2.8c0 .5-.7.9-.8 1.3 0 .3 0 .5-.2.7l-.7 1-1.3 2.2c-.3.6-.5 1.2-.9 1.7l-1 1.3c-.3.5-.7 1.2-.8 1.9l-.4 2c-.3.8 0 1.5-.6 2-.5.5-1.2 1.3-1.2 2 0 .4.1.8-.5.8h-5.2c-1.4 0-3-.4-4.4-.7-1.5-.4-3-.8-4.4-1.4l-4.8-2.1c-.8-.3-1.8-.8-2.4-1.3l-.5-.7c-.2.3-.1.8-.2 1.2a7 7 0 0 1 -.6 1.6c-.4.6-.3 1.2-.4 2-.2 1-.2 2.3-.2 3.5s-1.4.6-2 .6-1.2-.3-1.8-.5l-1.5-.2c-2 0-3.6.8-5.5 1.3-.3 0-.7.2-1 .5-.2.1-.5.1-.7.3l-1 .5-1.4.5c-.9.4-1.9.7-2.8.9-.8.2-1.6.1-2.3.3-.5 0-1 0-1.4.2-.3 0-.6.3-1 .3-.8.2-1.6.9-2.4 1.3-1.2.5-2.2 1.2-3.4 1.6-.4.1-.8.1-1.1.3a3 3 0 0 1 -1.3.4c-.7 0-1.6.2-2.3-.2a1 1 0 0 0 -.4-.1c-.2 0-.2-.2-.3-.2l-.6-.5c-.2-.2-.5-.1-.8-.2s-.5-.3-.8-.3l-1.1-.2h-1l-1-.2h-1.2l-1.8.2c-.9 0-.5 1-.8 1.6a4 4 0 0 0 -.5 1.6c0 .5 0 1.5-.3 2-.2.5-.4 1-.4 1.6 0 .5-.2.9-.3 1.3l-.6 2.2c-.1.6-.3 1-.3 1.6v5.7c0 1.1 0 2.3.3 3.3.2.4.1.8.2 1.2l.2.8v1.3c.3.8.3 1.7 1.4 1.4.4-.1.6-.6.8-1a5 5 0 0 0 1-1.6c.3-1 .6-1.7.6-2.7v-2.3l.1-4c0-.5 0-1 .2-1.4l.3-1c.2-2 1-4.4 2.5-6 .3-.2.8-.9 1.3-.9.4 0 .7.2 1 .5l1.1.7c.5.2 1 .2 1.6.2l2.7-.1h2.5l4.1.2h6.8c.8 0 1.7.3 2.5.4l4 .6h.3c2.5.2 5.1.3 7.7.7 1.9.3 3.8.2 5.7 1 .4.1.7-.1.8-.6l.4-3.7c.1-1.4.4-2.8.4-4.2v-3.2c.1-.5.3-.8.8-.7s1 .5 1.1 1c.6.8.1 1.7 1.1 2.4 1 .6 2.4.4 3.5.4h6.2c.8 0 1 .2 1.6.6.5.4.9.7 1.2 1.2.4.4.5.8.6 1.3 0 .3.3.5.3.9 0 .3.4.2.7.2.5 0 1.3-.6 1.6-1 .4-.5 1-1 1.2-1.5l.4-.5c.1 0 0-.3.2-.4.3-.2.6-.9.7-1.3l.7-1 .5-1c.4-.8 1-1.5 1.5-2.2.6-1 1.5-2 1.8-3.1 0-.4.5-.8.7-1.2l.7-1.1c.7-1.3 1.3-2.6 2.1-3.8l2.3-3.3 1.3-2.3.8-1.8.5-1.8c.2-1 .4-1.8.4-2.8v-2.6c-.2-.4 0-1-.2-1.4-.1-.3-.4-1-.4-1.4s.2-.7-.3-.7l-.5.2-1 .3z" fill="#ebdabd"/><path d="m56.8 315-5-.1.3-2.7c0-1.2.4-2.5.5-3.8 0-1.3.1-2.8.4-4.2.5-2.7.4-5.5.6-8.2.7-7.4.4-15 .4-22.4 0-7.6.4-15.4-1.6-22.7a25 25 0 0 0 -3.3-7c-.8-1.1-1.4-1.8-1.7-3a110.1 110.1 0 0 0 -8.7-19.3 16.8 16.8 0 0 1 -2.2-11.3c.2-1.4 1-2.7 1.5-4l1.5-2 .8-1.3.6-1c.3-1.4-.1-3-.1-4.5 0-1-.4-2.3-.4-3.4 0-1 .6-2 1-2.7l1.5-3.7c.3-.6.6-1.9 1-2.4.4-.2.5-.8.9-1 .5-.3.9-1 1.3-1.5l1.5-1.6c1.5-1.1 3.7-2.2 4.7-3.8.6-1 1.5-2 2.2-3l1.5-2.4c1-1.4 1.5-2.8 2-4.4.4-.9 1-1.6 1.4-2.4l1.6-3.2c.5-1.4 1-2.7 1.9-4 1.1-1.7 1.7-3.8 2.5-5.7l.3-.8c.1-.2.4-.3.4-.5 0-.7.5-1.3 1-1.6a14 14 0 0 1 3.5-2c.7-.3.8-.7 1.6-.7.3 0 .4-.2.7-.3h4.8c3.1 0 6 0 9-1 3.2-1 6.3-2.5 9.3-4 3.3-1.8 6.8-2.9 10.3-4.2a47 47 0 0 0 8.2-3.9c.8-.4 1.5-.8 2.2-1.4l.9-.5c1-.2 2-.7 3.1-1l2.7-.7c1-.4 2-1 2.9-1.8.7-.6 1.5-1.2 2.1-1.9 1-1 2-1.3 2.4-2.7.5-1.6 2.4-.7 3.3.1 1.1 1 2.2 2.6 2.2 4.2 0 1.1.3 3-.4 3.9-1 1.1.8 2 1.4 2.6.7.6 1.7 1 2.5 1.6l2.6 1.9c1.5 1.2 3.5 2 5.1 3 2.2 1.4 2.1 4 2.5 6.2.2.7.5.3 1 0 .5-.2 1.1-.2 1.6-.6l1.3-.8 2.4-1.5c1.5-.8 2.6-2.2 4-3.1l3.9-3c1.2-.8 2.3-1.7 3.5-2.4 2.9-1.7 5-4.5 8.2-6 .8-.3 1.4-1.2 2.4-1.5.6-.2 1-.6 1.5-1 1.2-.6 2.5-1.1 3.6-1.9.8-.6 2.1-2.2 3.2-2.2a21 21 0 0 0 5.3-.9c2-.6 4-.4 6-.6 2.6-.2 5.3-.2 7.9-.3 3.1 0 6-.5 9.1-.8 3.5-.3 7.3-.4 10.8-.4h2.5c.7 0 1.8.2 2.5-.1l3.1-1.6c1-.4 1.6-.9 2.7-.9a5 5 0 0 1 3.5 1.6c.4.5 1.1.6 1.6 1 .8.5 1.8 1 2.7 1.3h.1l1.3.7c.2 0 1 0 1.2.4.4.6 1.2 1 1.6 1.7l1.5 1.7c.7.5 1.3 1.2 2 1.6l2 1.5c1.3 1.3 2.9 2.3 4 3.8 1 1.3 2 3 3.4 3.7l3.4 2c1 .5 2.2 1 3 1.6.5.4 1.3.5 2 .8.9.3 1.6 1 2.6 1.2 1.7.4 2.9 1.6 4 2.8.5.5.9 1 1.2 1.6.3.8 1 1.3 1.5 2l2.2 3.8c.5 1 1.3 1.8 2 2.6l1.6 2c1 1 2.1 1.8 3 2.8.4.6.3 1.4.3 2 0 1.4.9 3 1.3 4.1s.5 2.7 1 3.7c.5.6.1 1.8.7 2.2.8.6.3 1.9.6 2.6.5 1.2.7 2.4 1 3.6.3 1.7.2 3.4.2 5v20.4c0 1-.5 1.6-.7 2.5-.4 2 0 4.5 0 6.6v15.3c0 3.9.5 8.3-.5 12.1-.6 2-.4 4.3-.4 6.4v16c0 1.5-.3 3.7.1 5 .2.7.1 1.4.1 2s-.3 1.9 0 2.2c.7.8.9 2 1.4 3 .1.2.5 1 .8 1.2.4.2.4.6.7 1 .6.6.8 1.7.8 2.5l.1 3.6v4.6c0 .5.2 1.2-.2 1.6l-1.6 1.5a8.2 8.2 0 0 1 -6 2.3c-3 0-6.2.5-9-.8-1.6-.9-4.3-.2-6.2-.3-1-.1-3-.3-3.8-1-.3-.2-.9-.3-1.1-.7-.2-.3-.8-.6-1-1-.2-1-1.5-1-2-1.9-.3-.6-.6-.2-1.3-.2h-7c-.3 0-1 1-.6 1 .4.2.9-.1.9.4v.7l.3 1.4.2 3.6v6.1l-.2 3.2c0 .7.3 2.3 0 3-.3.4-.8.2-1.2.5l-1.3.4h-4.5c-3 0-6.4.4-9.3-.4-.7-.2-1.3-.6-2-1-1-.5-2.1-.6-3.3-.6l-5.2-.1c-2.5-.1-5.2 0-7.7-.3-2.6-.3-5.3-.2-8-.5h-2.8a31 31 0 0 0 -4.3-.3c-2.8 0-5.4-.3-8.2-.3h-11.4l-14.8.1h-5.4c-1.6 0-3.1.3-4.7.3-7 0-14 1.2-21.1 1.3-1 0-2 .1-2.9.3-1.2.2-2.4 0-3.6.3-3 .5-6 .5-9 1l-14.5 1.6-22.6 3.5-6.4 1c-1.7.3-3.3.8-5 1-1.7 0-3.4.4-5 .5l-5.4.3c-.8.1-1.5.4-2.3.4h-2.9c-1.7.2-3.4.2-5 .2z" stroke="#2c2c2c" stroke-linecap="round" stroke-width="2"/><path d="m213.7 204.8-1.2.6-.8.8c-.2 0-.7 1-.8 1-.2 0-.4.2-.5.3l-.2.3-.2.3v.2l-.7.4-.5.5c-.4.2-.5.7-.8 1v1c0 .3.4.2.8.3h5c.6 0 1 0 1.6-.2l1.6-.5 2.3-.6c.6-.2 1-.2 1.7-.2 1.3 0 2.4.4 3.7.8 0 0 .6.2.6 0v-2.6l-.2-.6c0-.1-.2-.8-.4-.8h-3.2c-.5 0-1 0-1.4-.3-.2-.2-.6-.4-.6-.7v-2.3l.1-1.3c0-.2.2-.3.3-.5 0-.2-.2 0-.3 0l-.4.1-1 .5c-.2.1-.5.1-.6.3l-.3.2-.8.3-.4.2c-.3 0-.5.4-.7.5l-.7.6z" fill="#e39279" stroke="#2c2c2c" stroke-linecap="round" stroke-width="2"/><path d="m251 195.3.1 1.1c.2.5 3-1.3 3-1.3l2.1-.1c.6 0 1.6.2 2 .5s1 .4 1.5.6l1.7.8 1.2.7 3.2 1.8c.5.3 1 .7 1.6.7l.7.4a4 4 0 0 1 1.4 1c.3.5.8 1 1 1.5l.9 2.1c.3.7.2 1.6.8 2.1.5.6 1.4.7 2.1.8 1.1.2 2 .4 3.2.4.9 0 2 .1 2.6.8.8.8 1.4 1.6 2.3 2.3.9.5 2 1 3 .5.7-.4 1.5-1.1 2.1-1.8.7-.7 1.5-1 2.4-1.4 1-.6 2.3-.4 3.5-.4.5 0 .5 0 .5-.6v-8.7c0-.5.2-1.3 0-1.8 0-.2-.4-.5-.6-.7-.2-.3-.7-.4-1-.5-.5-.2-.9-.5-1.3-.5l-.7-.4-1.4-.5-1-.7c-.3-.3-1-.3-1.3-.6-.5-.4-1-.3-1.7-.5-.3-.1-1.2-.3-1.6-.1l-2.4.6a7 7 0 0 1 -1.6.3l-1.5.2h-1.5l-2.3-.1c-.7 0-1.5 0-2.2-.3-.5-.2-1-.1-1.4-.3-.7-.3-1.4-.6-2-.7l-2-.7c-.3 0-.7-.4-1-.6l-2-.9c-.8-.4-1.8-.3-2.8-.3a5 5 0 0 0 -1.7.3c-.5.2-1 .1-1.4.3l-1.8.9c-.3 0-.5.4-.7.5-.4.2-1.8.8-1.8 1.2s-.5.4-.7.6l-.8.6c-.3.1-.4.2-.4.5l-.2.4z" fill="#fd7400" stroke="#2c2c2c" stroke-linecap="round" stroke-width="2"/><path d="m292 242.5v4.8l-.1 1c0 .4 0 .9-.2 1.3v2.5c0 1 0 2-.3 3v.8l-.1.9v1.3l.1.7.1.7.1 1c.2.6 0 1.4 0 2v4l.2 1c.2.6.2 1.3.3 2l1 3.8.5 1.3c.2.3.2.6.3 1 .1 0 0 .3.2.4v6.3l.2.8v.1l.2.5.5 1c.2.4.6.8.6 1.4 0 .5.1 1 0 1.6l-.1.7c-.1.1-.5-.3-.6-.4-.5-.5-.6-1.1-.6-1.8v-3.2c-.3-.3-.2-.5-.2-.8l-.7-1.5c-.1-.4-.6-.8-1-1.1l-1.4-1.6-.5-1.2c-.4-.8-.8-1.6-1-2.4-.3-.6-.7-1.2-.8-1.9l-.5-1.5-.3-.9-.1-.7c-.1-.6-.5-1.3-.7-1.8l-.7-1.8-.3-.6c0-.2 0-.5-.2-.6-.2-.4-.3-1-.6-1.3l-.2-.5c-.2-.2-.1-.5-.2-.7l-.6-1.8c-.2-.8-.2-1.6-.5-2.4l-.3-1c0-.4-.3-.8-.4-1.2-.2-.3-.2-.9-.5-1.2l-.4-.7-.3-.8-.1-1.2v-1.4c.2-.3.3-.8.3-1.1s0-.7.3-1l.2-.5c.1-.2.3-.2.3-.5v-14.9l.1-1.9c0-.6 1-1 1.2-1.6.2-.4.7-.8 1-1l.9-1 1.2-.8 3.1-2.3c.3-.2.6-.3.8-.6l.7-.4.6-.9s.8-.5.8-.3v.9l-.2.6v1.8l-.2 7.2c0 2.8-.8 5.6-.8 8.5v2z" fill="#fd7400"/><g stroke-linecap="round"><path d="m292 242.5v4.8l-.1 1c0 .4 0 .9-.2 1.3v2.5c0 1 0 2-.3 3v.8l-.1.9v1.3l.1.7.1.7.1 1c.2.6 0 1.4 0 2v4l.2 1c.2.6.2 1.3.3 2l1 3.8.5 1.3c.2.3.2.6.3 1 .1 0 0 .3.2.4v6.2l.1.9c.2.1.2.4.3.6l.5 1c.2.4.6.8.6 1.4 0 .5.1 1 0 1.6l-.1.7c-.1.1-.5-.3-.6-.4-.5-.5-.6-1.1-.6-1.8v-3c0-.4-.2-.7-.3-1 0-.5-.4-.9-.6-1.4-.1-.4-.6-.8-1-1.1l-1.4-1.7-.5-1.2c-.4-.8-.8-1.6-1-2.4-.3-.6-.7-1.2-.8-1.9l-.5-1.5-.3-.9-.1-.7c-.1-.6-.5-1.3-.7-1.8l-.7-1.8-.3-.6c0-.2 0-.5-.2-.6-.2-.4-.3-1-.6-1.3l-.2-.5c-.2-.2-.1-.5-.2-.7l-.6-1.8c-.2-.8-.2-1.6-.5-2.4l-.3-1c0-.4-.3-.8-.4-1.2-.2-.3-.2-.9-.5-1.2l-.4-.7-.3-.8-.1-1.2v-1.4c.2-.3.3-.8.3-1.1s0-.7.3-1l.2-.5c.1-.2.3-.2.3-.5v-14.9l.1-1.9c0-.6 1-1 1.2-1.6.2-.4.7-.8 1-1l.9-1 1.2-.8 3.1-2.3c.3-.2.6-.3.8-.6l.7-.4.6-.9s.8-.5.8-.3v.9l-.2.6v1.8l-.2 7.2c0 2.8-.8 5.6-.8 8.5v2z" stroke="#2c2c2c" stroke-width="2"/><path d="m286.3 266.9c-.3-.6-.5-.8-1.1-.1l-1 1.3c-.3.2-.7.3-.8.5l-.6.5c-.3.1-.4.4-.7.7l-.9 1.2-.3.6-.5.7-.3.3-.5.8a4 4 0 0 0 -.6 1c-.2.6-.7 1.1-.8 1.7 0 .3-.3.6-.5.9l-.4.5-.9.7c-.3.5-1 .8-1.3 1.2l-.7.5-.8.6-.4.4-.4.2-.8.5-3 1c-1 .2-1.9.7-2.6 1.3-.4.2-.3 1.1-.3 1.5v2c0 .3 0 .8.2 1.2.2.4.4.7.8 1 1.3.9 2.6 1.7 4.3 1.9h2c.7 0 1.5 0 2.2-.3 1.1-.3 1 0 2.2 0 .5 0 1 .3 1.4.5l1.5.7.5.1 1.3.2h1.4l1.9-.2h1.9l1.7-.1 1.9-.5 1.5-1c.4-.4 1.4-1 1.8-1.5.3-.6.4-1 .7-1.2.3-.4.4-.5.5-1 .2-.5-.2-.8-.2-1 0-.6-.3-.8-.5-1.3-.2-.4-1-1-1.2-1.4-.3-.5-.3-1.2-.6-1.7l-1.6-2.5c-.2-.3-.4-.7-.8-1-.2 0-.3-.3-.5-.5l-.4-.8c0-.3-.3-.5-.3-.8l-.2-.6-.3-1.5c-.1-.5-.3-1-.3-1.6l-.2-.6c0-.2 0-.4-.2-.6-.1-.3-.1-.5-.3-.7l-.4-.9-.7-1.4c-.1-.3-.1-.6-.4-.9a3 3 0 0 1 -.4-.5zm-247.6 9.5c-.2-.1-1.4-.1-1.8-.4l-.6-.3v-.2l.3-.2 1-.9 2.4-1.7 3-2 3-2.1 1-.7 1.1-1c1-.7 1.9-1.5 2.7-2.3l1.7-1.7.4-.5h.1c.3 0 .4.2.5.4l.4 1.3.2 1.1v.7l.2 1v1.5l.1 1.1v2.6l-.5 1.6-.2.6v.3c-.2.2-.3.1-.6.1-.6 0-1.2-.3-1.7-.6l-.9-.4-.9-.3-.3-.3c-.4-.1-.9-.4-1.3-.4s-.8 0-1.3.2c-.4 0-.9.2-1.3.4a2 2 0 0 0 -1.1.3l-.6.3-.2.1-.2.2-.2.3c-.2 0-.3.2-.4.3l-1 1c-.4.3-1 .6-1.6.6z" fill="#d7c6ac" stroke="#2c2c2c" stroke-width="2"/><path d="m115.3 136.6v1c0 .3-.3.6-.4 1a4 4 0 0 0 0 2c0 .3.1 1 .6 1 .4 0 .9-.3 1.2-.6l.4-.5.6-.3c.7-.3 1.3-.4 2-.4.6 0 1 .2 1.4.4l1 .5 1 .5h.9c.2-.1.5 0 .7-.2l.4-.4 1.2-.8a5 5 0 0 0 1.3-1.4c.2-.3.5-.4.9-.2.2.1.5.3.6.6l.3.6v2l-.2.6c0 .7-.8 1-1.2 1.4l-1.2 1c-.1.2.2.2.3.2h.8c.4 0 .9.1 1.3.3l2.2.5c.8.2 1.8 0 2.7 0s1.7 0 2.5-.2c1.1-.2 2.3 0 3.4 0l2.4.3c.3 0 .5.3.8.5l1 1.3.7 1 .6.7c1 .6 2 .8 3 .8l1-.1.3-.7c0-.4.5-.7.8-1l.7-.7v-1c0-.3-.1-.8-.3-1.1-.2-.4-.3-.9-.6-1.3l-.4-.6c0-.2-.3-.4-.4-.6l-1.1-2-.3-.2-1-1-2.2-1.7c-1-.6-1.8-1.3-2.7-2l-2-1.5c-.4-.3-.9-.5-1.3-.9l-.8-.7-1-.9c-.3-.2-.4-.5-.4-.9l-.1-.4v-.8c0-.8 0-1.7.3-2.5v-2.9c-.3-1-.8-.7-1.4-1.4l-.6-.7c0-.2-.6-.2-.9-.2-.6 0-.6-.3-1.1 0l-1 .7c-.3.2-1 .2-1.1.5l-.8 1.1a2 2 0 0 1 -.5.5l-.8.6-.9.7-2.6 2.1-.5.2c-.2.2-.5.5-.8.6-.2.2-.6.4-.6.6-.2.3-.6.4-.9.5l-1.5.7-1 .5c-.6.3-2-.2-2-.2l-1.8 1-.5 1-.5 1v.7c-.2.3 0 .6-.2 1 0 .3.3.5.3.8z" fill="#f9e6c8" stroke="#2c2c2c" stroke-width="2"/><path d="m151.4 148.6c-.6.7-1.8 1-2.5 1.7l-.5.3c-.7.4-1.4.5-1.6 1-.3.4-.9.7-1.1 1.2-.2.3.3.2.6.2h2.9c.5-.2 1-.2 1.5-.2h1.2l1.8-.3 2-.1c.7 0 1.6-.4 2.4-.6l1.9-.5c1.5-.4 3-.9 4.5-1.6.8-.4 1.7-.7 2.5-1.2.8-.4 1.5-.9 2.3-1.2.5-.3 1.2-.3 1.8-.5l1.4-.4c.7 0 1.4-.2 2-.4l1.3-.4h2.5c1 .3 1.9.6 2.8.7.3 0 .5.3.8.4.2.2.2 0 .2-.2l.2-1.6v-4c0-.6.1-1.3.4-1.9.1-.3.2-1.2.7-1.2h.5c.4 0 .8 0 1.2.3l1.1.6c.4.2 1 .5 1.2.8l.5.5.7.5c.6.4 1.5.5 2.3.6s1.6.4 2.4.7c1.2.4 2.2 1.2 3.2 1.8 1 .5 2 .8 3 1l2.2.5 1.2.3h1l1-.2c.4 0 .5-.1.5-.4l-.2-2.5-.1-1.3-.5-1a8 8 0 0 0 -1.6-1.6l-1.4-.7-1.1-.4-.9-.2-2.1.1c-.4.1-.8.4-1.3.4h-1.1c-.6 0-1.2-.5-1.7-.6s-1-.4-1.4-.7c-.2-.1-.5-.5-.8-.6-.2 0-.3-.2-.4-.3a6 6 0 0 1 -1.6-1c-.3-.2-.7-.5-1-1l-.6-1.3-.6-1.4-.4-1c-.2-.2-.4-.7-.4-1-.1-.6-.5-1.2-.7-1.7-.2-.6-.5-1.1-.6-1.7-.2-.5-.1-1 0-1.4v-.5l-.5.2-1.3.6c-.7.2-1.3.7-2 1.1l-1.2 1-2 1-2.4 1.4-2 1.5-1 .7-1.4 1-1.5 1-1.4 1.1c-.9.6-1.6 1.5-2.5 2l-1.8 1.3-2.3 1.6-2 1.6-.7.6-.4.4c-.3 0-.7.4-.9.6-.5.4-1 .7-1.4 1.2l-1 1-.8 1c-.2.1-.3.3-.4.6l-.4.4a5 5 0 0 1 -1.2 1.3z" fill="#f9e6c8" stroke="#2c2c2c" stroke-width="2"/><path d="m185.7 122.7c-.3.2-.7.7-.8 1.2v2.9c0 .6.5 1.2.9 1.7.4.7.4 1.4.7 2 .3.7.7 1.2 1.2 1.7a22 22 0 0 0 2 1.8l1 .8.7.6c.6.4 1.3.9 1.8 1.5.3.4.6.6 1.1.6h1.1l1-.2c.5-.2 1-.1 1.4-.1 1 0 2.1.6 3.1.8.4 0 .8.3 1.2.4l.7.3.6.3c.5.2.9.6 1.3 1l.6.5.2.3c.1 0 0 .8.1.5l.5-.5c.5-.6 1-1.2 1.4-2l.7-1.1.5-1 .5-.9 1.2-2 .8-1.6.5-1 .3-.8c.5-.7.9-1.6 1.2-2.4.6-1.3 1.4-2.6 2.3-3.8l1.4-1.8c.3-.3.7-.6.8-1 0-.3.3-.5.4-.8l.4-.8.3-1 .2-1.7-.1-.6v-.4c-.1 0-.2 0-.3-.2v-.2l-.3-.4c-.2-.3-.6-.5-.9-.7l-.8-.7-.8-.6-.5-.4c-.4-.4-1-.7-1.5-1-.4-.2-.7-.5-1-.9-1.2-1-2.4-1.7-3.9-2.2l-2.7-1c-.7-.2-1.3-.5-1.9-.9a15 15 0 0 0 -2.2-1l-1-.3-.6.3-.6.2c-.3 0-.5.3-.7.4 0 .2-.6.5-.6.6 0 .2-.3.4-.4.6 0 .4-.5.6-.8 1l-1.5 2.1c0 .2-.2.3-.3.5l-.2.6-.5.7-.2.6c-.2.1-.2.3-.3.5l-1 1.4-.8.9-.3.5-.8.7-.4.5-.5.6-1 1-.7.6a23.2 23.2 0 0 1 -3.3 2.8z" fill="#ff8c00" stroke="#2c2c2c" stroke-width="2"/><path d="m191 106.7h-1l-.3 1.2v.3c0 .2.2.4.3.5l.5.8.6.6.4.5.5.4.6 1.2 1.1 1.1c.2.2.3.3.5.3l.2-.1.2-.2v-.2l.2-.1v-.2l.1-.2.1-.2.3-.2 1.3-1.6.3-.5.4-.5c0-.2.2-.4.3-.5l.3-.6.4-.6c0-.2.2-.3.3-.5l.6-.9.6-.6.3-.5v-.8h-.5c-.2.2-.4.2-.6.2l-2.4.5c-.5 0-1 .2-1.4.3l-1.2.3-.9.2-1.4.4z" fill="#e39279" stroke="#2c2c2c" stroke-width="2"/><path d="m26.7 410.7v8.8l-.8 4.3c.3.5 1 .6 1.5.8.6.1 1 .6 1.6.7.7.2 1.4.1 2 .1 2.4 0 4.6.2 7 .4 5.6.7 11.1 1.8 16.9 2l9 .3h21.3c7.7 0 15.3-.2 23-.4 6.8-.1 13.6-.8 20.5-.8h19.9c7.7 0 15.5-.7 23.3-.7h24.9c6.3 0 12.6.6 19 .3 8.4-.3 16.8-2.4 25.3-2.9 3.6-.2 7-.2 10.6-.6 2-.3 3.8-.8 5.7-1.2 1.7-.5 3.6-.6 5.2-1.5.4-.2 0-.8 0-1-.5-1.8-.5-3.9-.5-5.7 0-2.2-.5-4.4-.5-6.7v-8.4c0-2.9.5-5.7.8-8.6l.2-2c0-.5.3-1.1.3-1.7 0-2 .6-4 .6-6 0-2.1.5-4.3.5-6.4 0-1.8.5-3.8 0-5.7l-1.4-5.1c-.5-1.7-.4-3.5-.7-5.2-.4-2-1.6-3.8-2.2-5.7-.6-1.7-1.8-3.2-2.8-4.8a13.5 13.5 0 0 1 -1.6-7.2v-20.7c0-2.2.8-4.2.8-6.4 0-1 .4-2.2.7-3.1.2-1 0-2 .4-2.8.2-.5.4-1.6.4-2.2 0-.5.2-.9.3-1.4.3-.8.4-1.7.8-2.5.3-.5.4-.8-.3-.8-1 0-3.3.4-4.2-.1-.7-.4-2-.8-2.2-1.8-.1-.7-.4-1.6-.7-2.3l-.4-1.2c-1-2-.4-4.6-1.3-6.7-.4-.8-.7-1.2-1.6-1.6l-1.4-.2-1.2-.3c-1-.1-2.2-1-3.2-1.4-1.1-.3-2-.8-3.2-.8h-5c-1 0-1.3.5-2.1.5-.5 0-.9.3-1.3.4-.3 0-.6.4-1 .4l-1.2.3a7 7 0 0 1 -4.3.3c-2.1-.6-4.4-1.1-6.3-2.2-1-.7-1.4-1-2.8-1-1.6 0-3.2.5-4.8.5l-4.5-.2c-.5 0-1.3-.2-1.7-.4-.8-.3-1.8-.3-2.5-.9-.9-.7-2-.6-2.9-1.4-.9-.9-2.4-1.3-3.5-1.9-.5-.3-1-.4-1.4-.5-3-.8-6.1-1-9-2.2-2.6-1-5.2-2.2-7.8-3-2.5-.9-4.6-2.5-6.8-3.8-2.1-1.1-3.4-3-5.7-3.7-.5-.1-1.1 0-1.6-.2a3 3 0 0 0 -1.2-.3c-.9 0-2.3-.2-3 .1-1 .5-1.9 1-3 1-1.3 0-2.9-.1-4.1.3l-2.5 1c-.7.4-2.6.2-3.3-.1-1.2-.5-2.6-.9-3.9-1.1-.4-.1-.8-.6-1-.8-.4-.3-.7-.3-1.1-.4-1.3-.4-2.7 0-4 0-1 0-1.9.4-2.8.5a7 7 0 0 0 -2.5.6c-2.2 1-5 1.3-7.4 1.8-2.3.4-4.4 1.2-6.6 1.7-1.3.3-2.6.2-4 .2l-1.5-.1c-.8-.2-1.8.2-2.5-.2-.7-.3-1.7-.1-2.3-.7-1-.8-4.8-1-5.6 0-.3.5-.8.8-1.2 1.2-.3.3-.8.9-1.2 1.1l-3.3 1.8c-1.5.8-3.3-1.4-4-2.4-.5-.6-1.6-.6-2.2-1.1-.4-.4-1.3-.3-1.8-.6-.3-.3-.7-.5-1-.5-1.8 0-4.4-.3-5.8.8-.8.7-2 1.1-2.8 1.8-.6.5-1.4 1.3-1.8 2-.7 1.4-1.8 2.6-2.9 3.7-.4.5-1 1.8-1.6 2-.5 0-.7.2-1 .5l-.8.8c-.5.3-.3.8-.7 1.1s-.8.8-1 1.3c-.2.3-.4.8-.7 1-1.8 1.1-1.6 4-2.6 5.6-.4.6-.7 1.7-1 2.4-.2 1.4-1 2.7-1.2 4-.5 2.3-1.9 4.7-3.2 6.6-.8 1.2-1.4 3-2.7 3.7-.7.4-1.3.5-2.1.7-.4 0-.7 2.4-.9 2.8a7 7 0 0 0 -.5 2.5c0 .7-.4 1.4-.4 2.1 0 .8-.1 1.8-.3 2.5-.2.6-.3 1.5-.3 2.1l-.3 1.8c0 1.1-.4 2.2-.5 3.3v1.9c0 1-.2 1.7-.4 2.7-.4 2.3-1.1 4.5-1.5 6.8-.3 2.3-1.6 4.3-1.8 6.6-.1 1.7-.5 3.3-.5 5v3.6c0 2.5-1.5 4.8-1.5 7.3 0 1.3-1 2.6-1.3 3.8l-1 4.7c-.9 3-1.4 5.8-2.4 8.7-.4 1.1-1.1 2-1.5 3.2l-1.4 3-3 6c-.7 1-1.3 2.5-1.7 3.7-.2.9-.5 1.6-.5 2.6 0 .8-.3 1.8-.7 2.6a11 11 0 0 0 -.8 3.6c0 1.1-.9 2-1 3.1-.1.9-1.1 1.9-1.5 2.7l-1.3 3.3c-.4.7-.2 2-.2 3z" fill="#acf0f2" stroke="#2c2c2c" stroke-width="2"/><path d="m92.2 412.3c-.7 3-.4 6.1-.4 9.2 0 0-.4 3-.3 4 .2.8.6 1.5.6 2 0 1.5 2.7 1.4 3.7 1.5a67.8 67.8 0 0 0 12.5.2c1.4 0 2.8-.3 4.2-.4l12.7-.1c1.7 0 3.4-.4 5-.6 2.3-.2 4.6-.1 7-.3 4.3-.3 8.6-.3 13-1.2a17 17 0 0 0 5-2.2c.6-.5 2.3-1.4 2.7-2.2.3-.6-2.2-2-2.6-2.4-1.5-1.1-2-3.5-3.2-5-.2-.2-.2-.8-.4-1-.4-.6-.5-1.4-.9-2-.3-.4-.5-1.3-.6-1.8l-1.3-6c-.5-1.7-.8-3.4-1.5-5a12 12 0 0 1 -1.4-4.4c0-.9-.3-1.8-.4-2.8l-.3-1.2v-1c-.6-2.6-.8-5-.8-7.8l.2-10.7c0-1-.1-2 .2-2.9.2-.6.4-1.6.4-2.3 0-.8.5-2 .8-2.7l2-4.7c.7-2.3 1.6-4.5 1.6-7v-28.5c0-.8 0-1.4-.2-2-.2-.7-.2-1.7-.2-2.4l-.2-2c0-1.2-.3-2.1-.3-3.2a9 9 0 0 0 -.9-3.4c-.5-.9.3-2.3-.2-3.1l-1-2.9c-.5-1.2-.8-2.6-1.2-3.8a13 13 0 0 1 -.5-2c0-.6-.6-1.3-.6-2-.4-3-1.4-5.7-1.5-8.7 0-1.5-.6-3-.8-4.4 0-.8-.5-2-1-2.7-1-1.4-1.8-3-2.8-4.5-1-1.3-.8-3.4-1.9-4.4l-1.3-1.4c-.2-.3-1.1-.5-1.5-.8-.3-.3-.1-1.7.1-2 .5-.6.3-2 .3-2.7 0-.6.3-1.8 0-2.4-.4-.7-1.5-1.1-2-1.7l-1.4-1.5c-1-1-2.4-1.4-3.2-2.7-.3-.6-1.5-1.1-1.6-2 0-.4-1-1-1.2-1.5a7.5 7.5 0 0 0 -2.9-3.2c-.8-.4-1-.6-2-.6l-2.7.2c-1.6 0-2 .9-3 2-.5.5-.9 1.6-1.1 2.3-.2.4-.5.8-.5 1.2l-.3 1c-.6 1.1-.4 3.4-.5 4.6 0 1.1-.5 2.1-.5 3.3 0 .7-.5 1.2-.8 2-.4 1.1-.3 2.2-1 3.7-.7 1.3-1.3 3.3-2.4 4.3-.3.3-.6 1.2-.8 1.6-.3.7-.8 1.2-1 1.8-.8 1.5-1.8 3.4-3.2 4.5-1.1.8-1.7 3-2.3 4.1-1 2-2.3 4-2.7 6.2-.5 3.6-2.2 7.2-3.3 11-.4 1.3-.9 2.8-1 4.2-.3 1.3-.3 2.7-.5 4a36 36 0 0 0 -.5 3.7c0 .9-.5 1.8-.6 2.7-.1 1.1-.7 2.3-.7 3.4 0 1.5-.5 3.2-.9 4.6-.4 1.3.2 2.8-.2 4.1l-.6 3.6c-.2 1-.5 1.8-.5 2.8l.2 3.4v7.5l.2 18.5c0 2 .3 5 1.4 6.7 1 1.5 1.4 3.8 2.9 5 .7.6 1.2 1.7 1.6 2.6.3.5.9 1 1 1.5.1.4 0 .7.3 1 .3.8.2 1.5.6 2.3l1.2 2c.4.8.7.8.5 1.7-.1.6-.9 1.7-1.3 2.1-.3.4-1.2 1.7-1.3 2.2 0 1-.6 1.6-.7 2.5-.2 2.4-.7 4.7-.7 7.1 0 1.7.1 3.6-.2 5.2-.2 1-1 1.5-1 2.4 0 .8-.4 1.9-.6 2.7z" fill="#fd7400" stroke="#2c2c2c" stroke-width="2"/><path d="m161.6 288.8c0-.9.9-2 1.2-2.7l.8-2 1-2 1.1-1.1c.6-.7 1-.6 1.8-.8 2.7-.5 5.4-1.3 8.1-.7l2.5.8 1.9.5c.6.2 1.4.2 2 .5 1 .7 2.3 1.3 3.5 2 1.7.8 3 2 4.8 3h3.8c1.3 0 2.3 0 3.5.4s2.3 1.3 3.4 2a61 61 0 0 0 6.7 3.5c2.6 1 5.1.5 7.7 1 3.2.5 6.2.8 8.9 2.6l2 1.4c1.3 1 2.4 1.8 3.5 3 .8.9 1.4 2 2.3 2.7.3.4.6 1.3.6 1.8 0 1.9.1 3.7.4 5.5.2 2.2.2 4.4.2 6.6v7.6c0 1.2-.4 2.4-.7 3.5-.4 1.3-.4 2.6-.9 3.8l-.6 2.2c-.2.6 0 .8 0 1.3 0 1-.1 2.2-.4 3.1-.3 1-.6 2.4-1.1 3.4-.3.5-.5 1.3-.5 2 0 .4-.3 1-.4 1.4l-.4 1.7-1 3.6-.5 2.8c-.1.3 0 .6 0 .8-.2.7-.4 1.3-.4 2 0 .5-.6 1.5-1 2l-1.2 2.2a5 5 0 0 0 -.4 2v.1l-.6 3v2.9l-.6 2.7c0 .5-.4 1.1-.6 1.6l-.7 2c-.4 1-1 1.7-1.9 2.5-1 1-2.2 1.8-2.9 3-.4 1-1.4 1.5-2 2.1-.5.5-1.6 1-1.8 1.7-.2.6-.2 1-.6 1.5l-1.9 2c-.5.6-.6 1.2-.9 1.8v.6c-.1.2-.4.3-.4.5 0 .3 0 .5-.2.8a9.7 9.7 0 0 1 -2.7 3c-.7.5-1 1.2-1.6 1.7-.5.6-1.4 1.1-2.2 1.4-.6.2-1 .8-1.7 1a7 7 0 0 0 -2 .8 8 8 0 0 1 -4 1c-.6 0-1.3 0-2-.2l-1.8-.6c-1-.2-1.7-.6-2.6-.9-.7-.1-1.4-.4-2-.6l-2-.4-2-.6c-.4-.1-.8-.7-1.2-1-1.3-.8-2.6-1.9-4-2.4-.6-.2-1-.7-1.6-1-.8-.2-1.3-.8-2.2-1a13 13 0 0 1 -6.1-4l-3.8-3.8-3.3-3c-1-1.1-2.2-2-3.4-2.9l-2.8-1.7-1.7-1.1a2 2 0 0 1 -.8-.6l-2.1-2.6a22 22 0 0 0 -1-1.2c-.6-.7-1.3-2-2.2-2.2-.4-.1-.7-1-1-1.2-.2-.2-.7-.8-.7-1 0-.5-.6-1-.7-1.4l-.5-1.4-.1-1-.3-.9c-.2-.6-.1-1.4-.1-2v-3.8c0-3.1.4-6.2.4-9.3 0-1.2 0-2.6.3-3.8l.5-1.5c.4-.5.7-1.4.9-2l.7-1.7.6-1.8c.2-.4.5-1.3.5-1.7 0-.6.4-1.3.6-1.8l.4-2.3.5-2.2c.1-.6.5-1.3.5-2 0-.5.4-1.2.6-1.7.3-.9.8-1.7 1-2.6.8-2.6 2.2-5 3-7.7.5-2.2.8-4.6 1.8-6.6.5-1 .8-2 1-2.9l.7-1.7.5-1.5c.8-1.7 1.3-3.6 2-5.3l1.4-3.4.6-1.6c.2-.4.6-1 .6-1.5z" fill="#585858" stroke="#2c2c2c" stroke-width="2"/><path d="m165 281.2-.6.1h-.2c0 .4-.4 1-.7 1.4l-.4.8-.6 1c-.4 1.2-1.3 2.5-1.5 3.8l-.5 1.3-1 2.1c-.4.8-1 1.4-1 2.3l-.1 1.7c-.5 2.3-1 4.5-1.8 6.7-.5 1.7-1 3.5-1.8 5l-.6 1.6c0 .3 0 .6-.3.8l-.2.6-.1 1.3c0 .4-.4 1-.6 1.4-.4 1.3-1 2.8-1 4.1 0 1-.3 1.9-.5 2.8-.3 1.3-.8 2.4-1.2 3.6-.5 1.6-1 3.1-1.8 4.6l-1.5 2.6c-.6 1.2-1.4 2.2-2 3.3-.4.5-.4 1-.7 1.5v.8l-.3.9-.2 1.1c-.6 2.3-.1 4.7-.8 7l-.3 1.2c-.1.8-.4 1.5-.6 2.3v.1c-.4 1.5-.7 3-.7 4.5 0 .8-.2 1.7 0 2.4s.2 1.5.3 2.3l.2 2 .2 1.7c0 1 .8 1.5 1.3 2.3.2.3.6.4.8.6l.3.4.4-1 .1-.7.1-.8.1-.6c0-.3.3-.6.4-1 .2-.7.7-1.4 1-2 .2-.8.6-1.5.9-2.3l.6-1.3.2-1.2.6-2.5a21 21 0 0 1 1.9-4.9l1.3-3 1.4-3.3c.5-1.3 1-2.6 1.3-4 .3-.8.6-1.7.7-2.6 0-.4.3-.9.4-1.3l.3-1.2c.3-.9.5-1.9.9-2.8l1.5-3.5c.4-.7.7-1.6.8-2.4.2-1.5.9-3 1.1-4.4.1-.8.5-1.6.5-2.4l.3-.9c.4-.6.5-1.5.7-2.2a19 19 0 0 1 1.8-4.7 17 17 0 0 0 1.5-3.8 36 36 0 0 1 1.6-4.2c.5-1 .7-2.2 1-3.3.3-1 .8-2.1 1-3.2l.5-1.5.3-1.8c.2-1.2.6-2.5 1-3.7l1.7-6.8c0-.1.2-.6 0-.6h-.6l-1.4.3c-.7 0-1.3.3-2 .5l-1.7.6-1.6.5z" fill="#404040" stroke="#2c2c2c" stroke-width="2"/><path d="m171.2 299.8h-4l-.6 1.5-.2.7c0 .2 0 .4-.2.6s-.3 1-.3 1.3c-.1.2-.5 1.2-.2 1.3.2 0 .3.2.4.3h.4c.2.2.5.2.7.3l2.6 1.3c.8.6 2 1 3 1.3l4.3 1.4 3 .8h.1c.7.2 1.6.4 2.2.7 1 .7 2.1 1.4 3.3 1.9l5.2 2.3c.8.4 1.9 1.2 2.8 1.2l.7.2c1 .3 1.9 1 2.8 1.2 1.6.5 3 1.2 4.7 1.6l2.8.7 2.8.8 3.5.8 5.6 1.8 2.6 1 1.8.5 1.2.3 1.7 1c.7.3 1.2.8 1.9 1 1 .6 2 .9 3.1 1h2.4c.3 0 .5 0 .5-.3l.2-.7v-4c0-.6.3-1.5-.2-1.8-1-.5-2-.6-3-.8-.8-.3-1.6-.9-2.5-1.2l-1.1-.5c-.4 0-.8-.3-1.2-.5l-4-1.6c-2-.8-4-2-6.2-2.8-3.4-1-6.8-1.7-10.1-2.9l-2.2-1.1c-.7-.4-1.6-.6-2.4-.8l-3.5-.8-2.6-.5c-.9-.1-1.9-.2-2.6-.6-1.9-.8-3.6-1.8-5.4-2.6l-2.8-1.1-2.4-.9c-.9-.3-2-.7-2.8-1.3-.7-.5-1.5-1-2.3-1.3-.4-.2-1.1-.4-1.6-.4-.7 0-1.3-.3-2-.3zm62.4 4.2c-.2.1-.9.2-.7.7l.2 2 .2 2v2.2c.2 0 .4-.2.5-.3.2-.3.7-.6.9-1l.6-.8.4-.6.5-.7c.2-.5.7-.9 1-1.3a7 7 0 0 1 1.2-1.2c2-1.6 4-3 6-4.7l2-1.8a7 7 0 0 0 1.7-1.8l2-2.3 1.1-1.2.9-1 .5-.8c.6-.8.8-1.8 1.3-2.7l.3-.9.5-1 .8-1.1s.4-.3.2-.4l-.3-.2c-.2-.2-.6-.2-.9-.3l-.9-.2-1.7-.5-.5-.2-.3-.1-.4-.2c-.2 0-.4.6-.5.7-.1.2 0 .4-.2.5l-.3.6-.5 1.3c-.3.6-.4 1.3-.8 1.9-.3.7-.4 1.4-1 2-.1.3-.3.6-.6.8l-.6.9c-.2 0-.4.3-.6.4-.2 0-.3.3-.6.5l-.4.5-.8.7-1.4 1.2-.4.6-.8.7-1.2 1.1c-.6.7-1.3 1.5-2 2-.5.2-.7.6-1 .9l-.8.7-1.1 1-1.5 1.3z" fill="#404040" stroke="#2c2c2c" stroke-width="2"/><path d="m153.4 287.5c-.5.8-.8 1.6-.8 2.6v.3c0 1 .3 1.6 1.2 2.3l1 1.1c.4.5 1 .8 1.4 1.2l.9.6c.6.4.8.3 1-.4.2-.5.3-1 .6-1.4l.7-1.7c.2-.7.7-1.3 1-2l1.3-2c.5-.7 1-1.6 1.3-2.4.2-.6.3-1 .3-1.6l-.2-1.5c0-.2.1-.6 0-.8 0-.4-.6-.8-.8-1l-1-1-.3-.2h-.6c-.4.1-1 .8-1.3 1.1l-2 1.6c-.6.6-1.2 1-1.6 1.8l-.4.8-.4.4-.4.5-1 1.7z" fill="#585858" stroke="#2c2c2c" stroke-width="2"/><path d="m121.4 148.4.7 1.4.4 1.4c.3.9.3 1.5.3 2.4 0 1.4-.2 3 .1 4.5.7 2.9 1 6 1.5 9 .4 1.7 1 3.3 1 5v3.2c0 4.6 0 9.3.2 13.9l.2 4.2c0 1 .5 1.4 1 2.4 1.3 2.3 1.8 5 2.7 7.5l2.8 9 1.3 4.7c.9 2.3 1.8 4.8 2.2 7.2 0 .7 0 1.6.4 2.3l.4.9 1.3 3.7c.8 2 1.4 4 2 6l.7 2.4.4 2 .5 1.2c.3 1.5 1 2.9 1.6 4.2l1.2 3.4c.4 1 .6 2.1.9 3.2.3.8.3 1.8.7 2.6l1 2 1.5 3.3c.4.9.5 1.9.9 2.8l2.9 6.1v1.1c.2.7.3 1.3.3 2v6.8c0 1.3.4 2.9.7 4.2.2.4.1.8.1 1.2s.3 0 .4-.2l.9-.9.7-.8c.4-.4 1.2-1 1.8-1.3.8-.4 1.2-1.2 1.9-1.6.6-.4 1-.9.5-1.5s-.6-1.2-.8-2c-.2-.6-.7-1.3-.8-2a48 48 0 0 0 -1.8-6.5c-.1-.5 0-.9-.2-1.3a9 9 0 0 1 -.6-2c0-.3-.2-.7-.4-1s-.1-.6-.3-1c-.3-.6-.1-1.3-.3-2-1.4-4.7-2-9.5-2.9-14.1-.4-2.1-.6-4.3-1.1-6.4-.4-1.8-.5-3.7-1-5.5-.4-1-.4-2-.6-3.1l-.7-3.3v-.2c-.3-1.2-.2-2.5-.2-3.8 0-.4-.3-1-.4-1.5-.4-2.1-.6-4.2-1.1-6.3l-1-4.8-1.7-5.3-.6-3-.6-2.8-1.4-6.2c-.4-2.4-1.1-4.7-1.5-7.1-.2-1.1-.6-2-.6-3.2l-.3-3.7c-.1-2-.2-3.8-.6-5.7 0-.4 0-1.1-.3-1.5-.2-.3-.2-1-.2-1.3a19 19 0 0 0 -1.6-6.5c-.8-2-1.4-4.2-2-6.3l-1.7-4.2c-.2-.5-.4-1.3-.7-1.7a13.8 13.8 0 0 1 -2-5.3l-.7-2.5-.6-1.1c0-.3-.4-.7-.5-1-.1-.1-.4 0-.4-.2v-.5l.3-1c.2-.4.1-.9.3-1.3.2-.5 0-1.2.5-1.6.2-.2.3-.6.3-.9 0-1-1 0-1.4.3-.5.5-1.3.9-1.7 1.4-.6.7-1.4 1.1-2.2 1.5-1.2.8-2.3 1.8-2.3 3.4 0 .5-.3 1.9 0 2.2.2.3 0 .8.3 1z" fill="#404040" stroke="#2c2c2c" stroke-width="2"/><path d="m95.8 292.6.4 1v.8l.2 6.2v7.7a8 8 0 0 1 -2.4 6 6 6 0 0 1 -3 1.4c-.9 0-1.8.4-2.6.4-.4 0-1 .5-1.3.7-.4.3-.8.7-1.1 1.2l-.8 1c-.3.3-.3 1-.6 1.3-.4.8-1.3 1-2.2 1h-1.3l-.6-.3c-.2-.2-.3-.4-.6-.5-.4-.3-.7-1-1-1.5-.5-.9-1-1.7-1.4-2.7-.3-.7-.2-1.5-.6-2.2l-.7-2.3-.4-1.2-.4-1.1c-.4-1.3-.6-2.6-.9-4-.2-.7 0-1.6-.2-2.5l-.3-1.4c-.2-1.6-.1-3.2-.1-4.8v-1.8l-.7-2.4c-.4-1.6.2-3.3.3-4.9 0-.5.3-1 .5-1.4l.7-1.8.4-1c.1-.2 0-.4.2-.6l.2-1c.2-.4.5-.9.5-1.4 0-.4.3-.7.3-1 0-.5.3-.8.3-1.3 0-.1.2-.2.2-.5v-.6l.5-1.2c.1-.1.2-.8.5-.8.2 0 .3 0 .4-.2.2-.2.1-.3.4-.3l.4.2c.4 0 .7.4 1 .7l.9.8.6 1c1.3 1.4 2 3.2 3.4 4.4 1 .9 2 1.9 3.2 2.8l1 .5.7.6c.2 0 .6.1.6.4.1.3 1 .6 1.2.7.4.2.7.6 1 1 .4.2.7.4 1 .8l.4 1 .1.4.5.7.3.6v.3l.3.2.6 1z" fill="#ff8c00" stroke="#2c2c2c" stroke-width="2"/><path d="m79.2 282.2c-.2 0 .9 1 1 1.2l1.3 1.3c.7.7 2 2.2 3 2.5l1.3.5c.4.1.6.5 1 .6l.6.3c.7.5 2.4 1.8 3.1 1.8m-13.3 1.4 2.5.2c.8 0 1.5.5 2.3.5 1.5 0 3 .9 4.5.9m-8.2 5.9h2.3c.4 0 2 .2 2.3 0 .3-.3 1.4-.6 1.8-.6.6 0 1.1-.3 1.8-.3m-8.4 9.9c1.1 0 2-.2 3.1-.3.6-.1 1.7-.2 2.2-.6.4-.3.9-.5 1.3-1a5 5 0 0 0 1.4-1.5m-4.4 8.6c2 0 3.4-1.7 5.1-2.5" stroke="#2c2c2c" stroke-width="2"/><path d="m79.6 341.8c.7-3.6.8-5.2.4-9.3-.4-4 .6.4.6.4l.7 1.5c.2.5-.3 1-.3 1.5 0 .7.2 1.4.3 2 .2.5 0 1.2 0 1.8l.2 2v7.2l-.1 5c0 1.8-1 3.7-1.4 5.4l-.6 2.7c-.3.6-.7 1.8-.8 2.5v6.8c0 3.4-.6 6.7-.7 10.1v11.8l-.2 12c0 1.5-.5 3-.5 4.5 0 1.2-1 2.3-1.1 3.3-.3 1.4-1.3 2.5-1.3 4 0 1.3-1.6 1-1.6 0 0-.4-.3-1.5-.5-1.7-.4-.3-.3-1.9-.3-2.4l.2-4c0-3 .8-6 1.6-8.8.2-.6 0-1.5 0-2.2 0-1.2.4-2.4.4-3.7l.2-6.6c0-.7.3-1.5.5-2.2l.7-3c.4-.6.3-1.4.5-2.2.4-.9.7-2.1.7-3.1v-18c0-6 1.3-11.6 2.4-17.3zm-23.7 29.9.1-1 .5-3c0-2.3 0-4.6.3-6.9l1-7.3c.4-1.7.6-3.3.6-5v-8.5l.1-6.9c0-1.6.3-3.4.5-5 .2-1.4.3-2.8.6-4.1l2.2-8.3c.5-2 1.5-4.1 1.5-6.2 0-.7.2-1.5.4-2.2l1-3.3.5-2.5.5-2c0-.7.2-1.3.5-1.9l.8-2 .2-.7.2-1c0-.2.4-.3.6-.4.4-.3.6 0 .6.4v5.6c0 .8-.3 1.5-.3 2.3 0 .5-.3 1-.3 1.4l-.2 2.4-.5 2.9v1.1c-.2 1.4 0 2.8 0 4.2 0 2.6-.1 5.3-.7 8-.3 1.4-.4 3.1-.4 4.6s-.3 3-.4 4.4c-.2 2.3-.5 4.5-.5 6.8v3c0 1.8 0 3.6-.2 5.4v2.2l-.3 2.1c0 1-.3 1.7-.4 2.6l-.5 1.8-.4 2.2c-.2 1.3-.2 2.6-.2 3.9 0 1.9-.2 3.8-.4 5.7 0 1-.2 2-.5 2.9l-.7 3c-.2.7-.5 1.4-.6 2.2v4.1l-.2.5c-.1.4-.6.6-.7 1-.2.4-.6 1.6-1.3 1-.2-.2-.6 0-.7-.4 0-.2-.5-.4-.6-.6-.4-.7-1-1.3-1.2-2.1s-.5-1.5-.5-2.4v-4z" fill="#a1e0e2" stroke="#a1e0e2" stroke-width="2.3"/><path d="m141.9 287.5 1.2 4 .7 2c.2 0 .1.5.3.6l.2.8c.6 1.2.8 2.4 1.2 3.6l.5 1.7.1.9c0 .2 0 .5.2.7.1.3.4.7.8.8.6.2.7-.3 1.2-.5l1.4-1.1.7-.8v-1.9c-.1 0-.4-.4-.4-.6 0-.3-.4-.4-.5-.6v-1l.1-1 .2-.5v-10.8c0-.9.3-1.8.3-2.6l-.2-2.2-.2-.6-.5-1.2c-.1-.5-.6-.8-.8-1.2l-.9-1.1c-.2-.5-.8-.6-1-1-.1-.2-.8-.9-.9-.4l-.1.4-.1.5a1 1 0 0 0 -.3.7c0 .5-.2 1.1-.4 1.6-.3.5-.4 1-.9 1.3l-1.3 1.4c0 .2 0 .4-.2.5l-.6.5c-.2.4-.7.4-1 .7v.7l.1 1.4.4 2z" fill="#ff8c00" stroke="#2c2c2c" stroke-width="2"/><path d="m144.2 284 .1-.1.8-.5 1-.8.3-.4c0-.1.2-.4.4-.4" stroke="#2c2c2c" stroke-width="2"/><path d="m98.1 289.4-.1.9-.6 1.6-.1.6c-.2.8-.4 1.5-.4 2.2 0 .5 0 1-.2 1.5v1.2c0 1 .2 2 .5 2.8l.7 1.4 1.7 1.6.9 1 .6.5.8.3h.8l1.3-.1c.4 0 .6-.2 1-.4.5-.2.7-.7 1-1l.4-.5.3-.5 1.2-1.4.8-1 .5-.8 1.2-2.1c.4-.8.7-1.7.7-2.5v-2l-.1-1.2v-.8l-.2-.9-.1-.4-.3-.4-.4-.5-.4-.1a5 5 0 0 1 -1-1c-.2-.1-.5-.3-.6-.6l-.2-.8v-2l.3-.4.1-.2.7-.4.2-.2.2-.1h.9c.6 0 1.2 0 1.7-.4.2-.2.2-.4.2-.7v-1.3l-.7-.7-.4-.4-.3-.2-.3-.2c-.3 0-.5-.2-.7-.3l-.9-.4a5 5 0 0 1 -1-.7l-.5-.4h-.4c-.1-.2-.3-.2-.4-.3l-.6-.1h-.8l-1 .9-.1.1-.2.1v.2l-.4.5-.6.6-.3.4-.1.4c-.2.1-.3.4-.3.6l-.4.6-.8 1.3a1 1 0 0 0 -.1.5l-.1.3v.5l-.4.8-.3.4-.5.8-.4.7v.4l-.2.4v.2l-.2.7-.3.6v.2z" fill="#ff8c00" stroke="#2c2c2c" stroke-width="2"/><path d="m146 288.2.2-.1.4-.3.3-.2" stroke="#2c2c2c" stroke-width="2"/><path d="m99.6 288.3c-.2-.4-.6-.8-.5-1l.2-.5c.5-1 .5-1.6.9-2.6 0-.2.1-.5.3-.7l.2-.4h1l.3.4.2.4.7 1.3.5.8.7.7.4.2.4.3v.3l.2.3v2.9s0 .4-.2.4h-1.4c-.5 0-1-.4-1.3-.6-.3 0-.4-.2-.7-.3l-.5-.2c-.3-.2-.6-.4-.7-.7 0-.2-.3-.3-.4-.5 0-.2-.2-.4-.3-.5zm35.7-25c.3-.2.4-.2.7-.2h1.3l.6.3.6.6.6 1 .2.5.1.5v1.7c-.2.4-.5 1-1 1.2-.4.2-.8.5-1.3.5h-2.4l-.5-.2c-.4-.2-.5-.5-.8-.8l-.3-1.5v-.7l.3-.6c0-.3.3-.6.5-.8l.3-.4.4-.5.4-.4zm-17.7-12.3v-1.5c-.2-.8-.8-.5-1-.5l-.3.3-.6.4-.8.6-.8.8-.5.6-.2 1.2v.8l-.1.7-.1.8-.7 2.1-.3 1-.2.6c0 .2.4.3.5.3l.6.1 1-.1 1.2-.3.7-.3c.2 0 .4-.2.6-.4.4-.3.9-.7 1.2-1.2.2-.4.3-.9.3-1.3v-1.5a5 5 0 0 0 -.3-1.7l-.1-.5v-1z" fill="#ffb03b" stroke="#2c2c2c" stroke-width="2"/><path d="m246.7 328c0 1 0 2.2.5 3 .5.6.2 2.2.9 2.7.4.4.4 1.7.7 2.2.4.7.6 1.8.6 2.6m-8.4-35.2v1.8c0 .8.6 1.5.6 2.2 0 .6 0 1.4.3 2 .2.3 0 .8 0 1.2.4 1.1.4 2.2.4 3.4 0 .5-.3 3.1 0 3.5.4.2.3 2 .5 2.5l.7 2.7c.5 2 1.1 4 1.1 6s.8 4 .9 5.8c0 .9.7 1.9.7 2.8 0 1 .4 2.5.8 3.5.3 1.2.2 2.8.7 4 .4.8.8 2.3.8 3.2 0 1 .7 2 .7 3l.2 2.5" stroke="#2c2c2c" stroke-width="2"/><path d="m146.8 369.3c-.2 0-.4-.4-.6-.4l-.4-.3c-.6-.5-.5 1.2-.8 1.8l-.1.6-.2 1-.1 1.6v1.9l-.2 2.8c0 1 0 1.9-.2 2.8-.2.8-.2 1.6 0 2.4l.5 2.2.8 3.8c.3 1.5.4 3 .8 4.4l.7 3.2c.2.8.5 1.5.6 2.3 0 1 .2 1.8.4 2.7l.1 1.3.1 1.2 1 3c0 .5.3 1 .5 1.6.2.5.5 1 .6 1.6.2.8.2 1.5.5 2.4a13.6 13.6 0 0 0 5.4 7c.6.4 1.3.6 2 .8.8.2 1.6.4 2.3.4.9 0 1.8.1 2.6.3h2.3c.7 0 1-.1 1.4-.7.5-.9.5-2 1.2-2.7.2-.2.1-.8.1-1 0-.5-.2-.8-.5-1.1-.6-.6-1.6-.4-2.3-.4h-.6l-.8-.2c-.2 0-.4-.3-.5-.4-.2 0 0-.6 0-.8 0-.8.5-1.4.9-2.1.2-.5 1-3.6.6-3.6h-1c-.3 0-.7 0-1-.2l-.4-.3-.3-.4c-.3-.2-.4-.6-.4-1s0-.6.2-.9l.3-.6.4-.7.3-.7.4-.4c0-.2.3-.3.4-.5l.3-.3.3-.4c.5-.5 1-1.4 1-2.1l.2-4.7.3-2.6.4-2.1c.2-1.1.8-2.1.7-3.3l-.2-.6-.4-.7-.8-1.4-.4-.3-.5-.3-.2-.2-.7-.8-1.3-1.2-1.4-1.3c-1.1-1-2.4-2.1-3.8-2.8l-2.2-1.3-1.2-.8-.6-.6-1.2-.8-1.7-1.3-.5-.5-.6-.6-1-1.5-1.1-.8z" fill="#ff8c00" stroke="#2c2c2c" stroke-width="2"/><path d="m237.5 367.1c0 1.3.8 3.1 1.6 4.1l.2 1 .4 1.6c.2.8.6 1.7.6 2.5 0 .7.3 1.4.4 2 .3.8.2 1.6.5 2.3v1.2c0 .5.3 1 .4 1.5 0 .6.4 1.2.6 1.8s0 1.2.4 1.7c.6.6.4 1.7.6 2.4.6 1.8.4 3.6.7 5.5.2 1.8.3 3.8.3 5.7 0 1 .4 2 .4 3 .3 4.2.4 8.6.4 13m-174.5-150.5c0 2.9.4 5.7.4 8.6v2c0 .6-.4 1.3-.5 1.9l-1.1 3.7c-.3 1.2-.7 2.4-.7 3.6a4 4 0 0 1 -.5 1.9c-.4.4-.1 1.4-.5 1.9a6 6 0 0 0 -.3 2c0 .5 0 1.4-.2 2-.2 1.3-.7 2.6-.7 3.9l-.1 4.2c0 1.5-.6 3-.6 4.6l-.1 2.2v2c-.4.7-.4 1.6-.4 2.4 0 .3 0 1.8-.2 2-.6.8-.5 3.2-.5 4.2 0 2.1 0 4.3-.2 6.4l-.3 1.8v2.3c-.1 1.6-.8 3-.8 4.8" stroke="#2c2c2c" stroke-width="2"/><path d="m94.7 405.9s-.6-.4-.7 0l-.6 1.3a4 4 0 0 0 -.3 1.7c0 1.3-.4 2.7-.5 4-.2 2.6 0 5.2 0 7.8 0 .5.3 1.2.9 1.3h.3l.7.2c.5.1 1 0 1.6 0 1.3 0 2.6 0 3.9-.2l1.6-.1h.9l.5-.1c.3-.1 1-.4 1-.7-.1-.4-.4-.7-.6-1l-.4-.8-.1-.6-.2-.4c-.1-.3-.3-.4-.5-.5l-.7-.8c-.3-.5-.6-1-1-1.3l-.3-.5c-.6-1-1-2-1.4-3l-1.1-2.1-1.4-2.5c-.2-.4-.6-.7-.9-1z" fill="#ff8c00" stroke="#2c2c2c" stroke-width="2"/><path d="m167 418.7v2l-.5 1.6c-.2.4.2 1.6.5 1.7 1 .3 2 .9 3 .9a21 21 0 0 0 5.8-.6c2.2-.4 4.5-1 6.8-1.3 2.1-.4 4.2-.7 6.4-.9l2.5-.2h2.6l5.3-.3c1.6-.2 3.1-.5 4.7-.5h3l2.8.4c1.7.4 3.4.8 5.1.9 1.5 0 3 0 4.4-.4.5-.2 1-.5 1.4-1l.7-.5.3-.4v-2.8c0-.3-.4-.7-.6-1-.8-1-1.6-2.1-2.6-2.9l-1.5-.8-1.3-.6-1.5-.5-1-.4-1-.3c-.5-.3-1.1-.3-1.7-.4l-1.4-.3-1.1-.3c-.3 0-.6-.2-.8-.3l-1-.4-2.5-.6c-.6-.2-1.3-.2-1.9-.2h-1.6c-.4.1-.9.1-1.3.3l-1.5.7-1 .8-1.6 1.5c-.2.3-.7.4-.9.7 0 .2-.1.4-.3.5l-.3.4-.3.2-.7.4-.8.7-1 .8-.7.7c-.2.3-.5.3-.8.5-1 .7-2.2 1-3.3 1.4l-1.1.2h-2l-2.2-.1c-.7 0-1.5-.3-2.2-.5a5 5 0 0 0 -1 0c-.3 0-.6-.2-1-.4h-2.1l-2 .2-1.2.2h-1.3c-.2.1-.5 0-.8 0h-.9l-.4.1-.3.1-.2.3z" fill="#fd7400" stroke="#2c2c2c" stroke-width="2"/><path d="m112.2 333.4.6-.2h.7l.7.1.6.3.5.6.7.9.2.5v.5l.1.5-.1 1.2c-.2.5-.5 1-1 1.2-.4.2-.8.5-1.2.5h-2.4l-.5-.2c-.4-.1-.6-.4-.8-.8-.3-.4-.3-.9-.3-1.4v-.7l.2-.7.5-.8c.2 0 .2-.2.3-.4l.5-.4c0-.2.2-.3.3-.4.1-.2.3-.2.4-.3zm36.3-173.4.6-.2h1.4l.6.3.5.7.7.9.2.5v.5l.1.5-.1 1.2c-.2.5-.5 1-1 1.2-.3.2-.8.5-1.2.5h-2.4l-.5-.2c-.4-.2-.6-.5-.8-.8-.3-.5-.3-1-.3-1.4v-.7l.3-.7c0-.3.2-.6.4-.8.2 0 .2-.3.3-.4l.5-.5.3-.4zm-46 242.5c.3-.2.4-.2.7-.2h1.3l.6.3.6.7.6.9.2.5.1.5v1.7c-.2.5-.5 1-1 1.2-.4.2-.8.5-1.3.5h-2.3l-.5-.2c-.4-.2-.5-.5-.7-.8-.3-.5-.4-1-.4-1.4v-.7l.3-.7c0-.3.3-.6.5-.8l.3-.4.4-.5.4-.4.3-.2z" fill="#ffb03b" stroke="#2c2c2c" stroke-width="2"/><path d="m144.3 153c-.7.9-.1 2.9-.4 4-.3 1-.2 2.4-.6 3.3-1.1 2.4-1.8 5.3-2.6 8-1.3 4-.6 9-.6 13.3 0 3.6-.1 7.2-.3 10.7 0 .8-.5 1.6-.5 2.5v2.6c0 1.8 0 4-.3 5.7-.5 4-.4 8-.4 12 0 1.7-.3 3.2-.3 4.9 0 2.2-.8 4.4-1 6.6 0 1.3-.7 2.7-1.2 3.9l-1.5 3.9c-.5 1.1-.5 2.7-.5 4 0 .8-.6 2.4-1 3.2a61 61 0 0 0 -2.8 9l-1 4.2c-.5 2.4-.2 5.3-1.3 7.6-.9 1.9-2 3.7-2.5 5.6a16 16 0 0 1 -1 2.7c-.3.6-1.1 1.8-1.2 2.5-.2 1.3-1.1 2.4-1.3 3.7a16 16 0 0 1 -1.6 4.8c-.5 1.2-.5 2.6-.9 3.9-.3 1-1 2-1.2 3-.3 1.4-1.3 2.8-1.8 4.2-.4 1.5-1.1 3-1.7 4.4-.4.8-1 1.9-1 2.8 0 2-1 4.3-1.6 6.3-.4 1.3-1 2.7-1.6 4-.6 1.1-1.2 2.7-2 3.7-.7.6-1.6 2.5-1.6 3.4 0 .6-.4 1.5-.5 2.2-.1.8-.5 1.4-.5 2.3l-.2 3.2-.3 3.3c0 1.2-.4 2.2-.5 3.4-.1 2.7-1.2 5.2-1.2 8 0 2-.5 4.6 0 6.6.4 2 .7 4.2.7 6.4 0 2 .6 5.3-.5 7.2-.6 1-1 2.4-1.3 3.5-.2.8-.9 1.5-1 2.3 0 1-.7 2-.7 3-.1 3.8-1.4 7.3-2.2 10.9-.4 1.5-.8 3.2-1 4.7-.2 1-.5 2.2-.5 3 0 2.5-.7 4.8-.8 7.2 0 1-.4 2.4-.8 3.2-.6 1.3-.7 2.9-1.1 4.2-.2.6 0 1.2-.3 1.6-.2.3-.3 1.6-.3 2-.1 1.3-.7 2.7-.7 4.1 0 2.1-.1 4.3-.6 6.3-.5 2.3-.4 4.5-.4 6.9" stroke="#2c2c2c" stroke-width="2"/><path d="m30.4 397c.2-.9.8-1.7.8-2.5l1-2c0-.6.3-1.1.4-1.6l.5-1.5c.3-.5.3-1 .5-1.4l.4-.9c.2-.6.6-1.1.7-1.7l1.1-2.3 1.6-3c.4-.7 1-1.3 1.6-2 .3-.4.6-1.1 1.1-1.1 1.2 0 2.6.3 3.7.8.4.1.7.4 1 .8l.4 1 .5 1.6c0 .4.3.8.5 1.2l.5 1.5.5 2.3v.9c0 .2.5.3.7.4a5 5 0 0 0 1.7.5c.7 0 1.4-.4 2-.7.6-.2 1-.6 1.5-.9l1.8-.7c.4 0 .8-.3 1.2-.1.7.4 1.3 1.2 1.3 2 0 .5.3 1 .4 1.5.2.8.5 1.5.5 2.4 0 .4-.3.8-.4 1.2l-.4 1.8-.6 2.4-.1.3-.3 1c0 .6-.2 1.3-.4 2-.3 1.1-.4 2.4-.4 3.6l-.1 4.6-.2 2.9c0 1.1-.4 2.3-.4 3.4 0 .5-.3 1.1-.5 1.5-.2.2-1 .3-1.1.3l-.5-.2-.8-.1s0-.3-.2-.3l-.5-.2-1-.3-1.2-.6c-.6-.3-1-.6-1.6-.7s-1.3-.3-1.8-.6c-.3-.2-.9 0-1.3 0h-1.4c-.6 0-1.3.4-1.8.6l-1.6 1c-1 .7-2.2 1-3.4 1l-1.5-.2-.4-.1-.6-.1c-.3-.2-.7 0-1-.1l-1-.3-.7-.2-.6-.3c-.2 0-.4-.3-.5-.3l-.5-.3c0-.2-.3-.1-.4-.2l-.5-.3-.8-.7c-.3-.2-.7-.5-.8-.9v-2.6l.2-1.1c0-.4.2-.8.3-1.1l.2-1.2.1-1.2c.1-.6.4-1.2.4-1.9 0-.3.3-1 .5-1.2l.6-1.6c0-.5.2-1 .4-1.4.3-.6.6-1.2.7-1.9z" fill="#ff8c00" stroke="#2c2c2c" stroke-width="2"/><path d="m205 403.7c0-.6.5-1 .5-1.6 0-.3.2-.5.3-.7l.3-.8v-.7l.2-.4.2-.4c.3-.4.6-.6.6-1m12.3-11.6-.1 2.1c0 1-.4 1.8-.5 2.7l-.5 1.7-.4 1.4-.6 1.4c-.3.6-.5 1.2-1 1.7l-1.3 2.1-.4.9c-.1.3-.4.6-.4 1v.3l-.1.7v.7c0 .5-.3.8-.3 1.2m40.2-32.4c0 1.6.6 3.7 1.4 5.1.3.7.4 1.8.4 2.5v12.1c0 1 .1 2.2-.3 3.1-.3.7-.7 1.8-.7 2.5s-.4 1.8-.6 2.4c-.4.8-.1 2.3-.1 3.2v3.2c0 .5-.3 2.6 0 3 .2 0 .3 1 .3 1.3l.5 1.3 1 3.5c.4.7.5 1.8.5 2.5 0 1.1.7 2.2.7 3.4m-198.3-45.7c0 .9-.3 2.2 0 3 .4.7.4 1.7.4 2.4l.1 6.3v2c0 .7-.4 1.5-.6 2.2l-.3 1.5-.4 1.4c-.5.8-.4 2.1-.7 3-.4 1.5-.3 3.1-.6 4.6-.2 1-.4 2.1-.4 3.2l-.3 2.2c0 .9-.4 1.8-.4 2.8 0 1.9-.2 3.8-.5 5.6l-.6 3.3c-.1.7 0 1.7-.4 2.3m167.1-24.2c0 .6-.2 1-.4 1.6l-.5 2.4-.4 1.6c0 .3-.3.6-.5 1m8.9-3.6a13 13 0 0 1 -.5 3.9l-1 2.2-1.2 1.9-.8 1.1c-.2.2-.5.5-.6.8-.1.5-.4.9-.4 1.3m-52.2-153.5c0 .7.8 1.1.9 1.8 0 .7.4 1.4.7 2 .7 1.6 1.1 3.1 1.6 4.8.7 2.6.9 5.7.9 8.4m1.3-15.6c0 1.1.2 1.8.6 2.8.2.3 0 .9.3 1 .2.4.4.8.4 1.2l.6 2.2c.1.7.2 1.7.5 2.2m13.9-3.9v1.5c0 .5.3.9.3 1.4 0 .6.6 1.3.7 2 .2.6.4 1.6.8 2.1a9 9 0 0 1 1.4 3c.2 1.1.9 2.2.9 3.3m34.2-1v2.6c0 .9.3 1.8.4 2.7 0 .8.7 1.6.7 2.4 0 1 .5 2.2.8 3.1.2.5.2 1.9.5 2.1.5.4.2 1.7.5 2.1s.5 1.7.5 2.1l.2 2.4m1.6-12.2c0 2 0 3.9.5 5.7.4 1.4 1 3.1 1 4.6" stroke="#2c2c2c" stroke-width="2"/><path d="m44 208.2c.9-.6 1.8-1.1 2.5-1.9l2.6-1.8 1.1-.9 1.8-1.3 2.6-2.2c.7-.7 1.6-1.2 2.3-2l1.8-1.4 1.7-1.2c.4-.5 1-.8 1.5-1.3 1.2-1.5 3.2-2.4 4.6-3.7 1.3-1.2 2.6-2.5 3.8-4s2.8-3.3 3.3-5.3l1.1-4 1.3-5.2c1-3.7 1.5-7.3 1.5-11.1 0-3.1.9-6 1.4-9.1.4-2.8 1.3-5.5 1.5-8.3a31 31 0 0 1 1-6.7c.4-2 .3-4.2.3-6.2 0-1.2.2-2 .5-3v-.1c.4-1.7 0-3.4.2-5.1.2-1.6.2-3.2.5-4.8.6-3 1-5.8 2.2-8.6.3-.9.9-1.5 1.3-2.3.3-.6.9-1 1.2-1.5s1.2-1 1.6-1.4 1.1-.5 1.6-.5l2.7.1c1 .3 1.7.9 2.6 1.3 1 .5 2 1.3 2.9 2 .9.8 2 1.4 2.7 2.2 1.2 1.2 2.2 2.5 3 4l1.1 2 1 2.3c.5.7.6 1.5 1 2 .4.4.6.9.9 1.3.7 1.1 1.2 2.4 2 3.5 1 1.2 2.4 2.4 3.2 3.8.3.6.2 1.3.3 2 .2.9 1 1.4 1 2.4l.2 5.6c0 .3-.2 3.1 0 3.2.7.2 1.5 0 2.2 0 .4 0 .8-.7 1.1-.9 1-.6 2.4 0 3 1 .6 1.2.4 2.8.7 4.1.5 1.6.8 3.3.9 5 0 1.3.6 3.5 1.5 4.4 1.1 1.1 2.6 2 3.8 3 .5.4 1.3.8 1.3 1.5 0 1 .7 2.2 1.3 3 .7.8.4 2.1.5 3.2.2 1 .6 2 1 3.1.2 1 .1 2.2.5 3 .5 1 .8 1.8.8 3l.1 1.4c.3.5 0 1.2.4 1.7.3.5.5 1.5 1.3 1.6l1.7.1c1.4 0 2.7 0 3.8 1 .2 0 .5.2.6.4.2.3 0 .4.3.6.1 0 .1.6.3.8l.6.7.7.9.6.7c1.2 1.3 2.4 2.3 4.1 3 1.6.5 3 1 4.7 1.3l1.2.4h.1l3.4 1.9c1.8 1 3.4 2.4 5.1 3.5 2.2 1.4 4.6 2.8 7 3.9 2 .8 4 1 6 1.9l3 1c1 .5 2 1 3 1.3l4.4 2.2c.6.3 1.2.7 1.7 1.2 1 1 3 1.8 4.4 2.4s3.2 1.7 4.7 1.7c2.5.1 5-.7 7.5-.7l5.7.1 2.8-.1 1.6-.2c.3 0 1.1.2 1.4 0 1.3-.8 4-.3 5.4-.1 2.3.2 4.7 1.4 6.7 2.5l2.4 1.4c.4.3 1.2.4 1.5.9.5 1 2 1.7 3 2.3 1.2.7 2.3 1.7 3.5 2.5 1.3.7 2.4 1.7 3.8 2.4 1.5.7 3 1.7 4.5 2.3.2 0 .6 0 .8.2l2.4 2.3c.9 1 1.6 1.3 2.7 2l3 1.6 2.4 1.7c1.8 1 3.4 2.5 5 3.9a31 31 0 0 0 3.9 2.7c.5.3 1.2.5 1.6 1 .5.5 1 1.2 1.6 1.6l1.5 1.3.4.8 1 1.4c.3.4.9 1 1 1.5.4.8 1 1.7 1.6 2.3.8.8 1.4 1.9 1.9 2.9.4.7 1.2 1.2 1.8 1.8.7.8 1.4 1.8 2.3 2.5 1 .8 2 1.3 2.8 2.4.2.3.1.6.1 1 0 .5.3.9.4 1.4.3 1.2.5 2.2.5 3.4 0 1-.1 1.8-.3 2.6 0 .7-.5 1.2-.6 1.8-.1 1.2-1.4 1.8-2 2.7-.5.7-1.4 1.1-2 1.7-.4.4-.6 1-.9 1.4-.3.4-.7.9-.7 1.4v.7c0 .3-.3.4-.3.7-.2 3.3-3.5 4.7-6 6-1.8.8-3.6 1.1-5.3 1.8-1.4.6-2.7.2-4.1.2l-3.7-.2c-1.5 0-3.1 0-4.6-.5-3.8-1.2-7.1-3.5-11-4.6-2.1-.5-4-1.7-6-2.2-3.2-.7-6.3-1.8-9.4-2.5-2.3-.6-4.7-1-7-1.7l-5.4-2.1c-3.5-1.5-7-3.1-10.7-4.4-1-.3-2.1-.3-3.1-.8-1-.4-1.8-.9-2.7-1.4-1.2-.7-2.4-1.5-3.6-2-1-.3-1.7-1-2.7-1.6-2-1.1-3.7-2.7-5.6-4-2.3-1.8-5-3.1-7.4-4.7a53 53 0 0 0 -8-3.7c-1.2-.5-2.4-1.2-3.7-1.5-.8-.2-1.6-.8-2.2-1.1s-1-.4-1.4-.9a7 7 0 0 0 -1.6-1.3l-1.4-1.5-3.5-3.3c-1.3-1.3-3-2.4-4.6-3.3-.8-.4-1.8-.7-2.5-1.2-1.2-1-2.3-2.3-3.3-3.4-1.5-1.6-3.3-2.8-5-4.4-1-1-1.8-2.1-3-2.8-1-.5-1.6-1.4-2.3-2.1-1-1-1.8-2-2.9-2.9-2.9-2.2-6.2-3.5-9.5-5.1-1.6-.9-3.3-2-4.6-3.2-1.3-1.3-3.2-2.2-4.7-3.2a81.6 81.6 0 0 1 -5.4-3.8l-.8-.6c-.1 0-.6 0-.5-.2.2 0-.2-.3-.3-.4-.4-.4-.7-1-1.2-1.2-.4-.2-.6-1-1-1-.7-.1-1.6.4-2.2.7-1 .6-1.1 1.4-2 2.2l-1.1 1-2.4 2c-.8.4-1.3.9-2 1.5l-.8 1.1c-.4.6-1 1-1.5 1.6l-1.2 1.4c-.8 1-1.8 1.6-2.6 2.4s-1.5 1.5-2.4 2.1c-1.2.9-2 2-3 3.1a24.7 24.7 0 0 0 -3.3 4c-1 1.5-2 2.6-3.2 3.8-1.6 1.6-2.8 3.4-4.3 5l-1.2 1.4c-.6.6-1 .9-1.4 1.6a35 35 0 0 1 -2.8 4.4l-2.5 3c-.4.7-.9 1.3-1.4 1.8-.6.7-.9 1.6-1.4 2.4-1.3 1.9-2.3 4-3.5 6-.8 1.2-1.8 2.2-2.5 3.5a61 61 0 0 0 -1 2c-.4.8-1 1.2-1.4 1.9-.4.4-.9.6-1.1 1.1l-.6.7-1.8 1.5c-.7.4-1.3 1.1-2 1.6-.5.4 0 1-.5 1.5-.9.7-1.9 1.4-2.7 2.3-1.4 1.3-3.1 2.4-4.6 3.4l-1.5 1c-.4.2-.7.6-1.2.8-1.5.7-3.4 1.2-4.8 2.2-.7.5-2.1.9-3 1-.8.3-1.6.8-2.5.8l-4.6-.1c-2.2 0-4.4-.7-6.5-1.2l-2.6-.5c-.7 0-1.2-.4-1.9-.4-.5 0-1.3-.8-2-1-.8-.1-1.5-.6-2.3-1-.6-.4-1.2-.8-1.8-1l-1-.8c-1.3-.8-1.5-2.7-2-4-.5-1-1.5-2-1.7-3-.3-1.3-.5-2.8-.5-4.1 0-2.5-.3-5.2 0-7.6.4-1.8.1-3.6.6-5.3.4-1.2 1-2.6 1-3.9 0-.8.3-1.6.4-2.5 0-.7.3-1.7.5-2.4.4-1 .3-2 1.1-2.9 1.6-1.6 3-3.6 4.5-5.3.2-.2.5-.8.8-.9l.2.2.6-.3c.2-.4.6-.4.8-.8l.5-.9c.5-1 .8-1.4 1.8-1.9.5-.2 1.2-.8 1.7-.9l1.7-.5c.2-.4 1-.7 1.4-.9.2 0 .2-.3.5-.4.3 0 .4-.2.7-.4 4.4-2.8 9.8-3.7 13.9-7a70.5 70.5 0 0 0 7.2-6.3c.4-.4.9-.6 1.3-.9z" fill="#f3d4ca" stroke="#2c2c2c" stroke-width="2"/></g><path d="m87 115.8.1 8.8 1 3.2c.1.6.3 1 .6 1.6.4.5.2.5.3 1.1.3 1 .6 1.2.6 2s.3 1.5.3 2c0 .2.4.7.4 1l.5 2.9c0 1.5.5 1.1 1.3 2.8.3 1.6.1 2 .6 3.2l2 5c.6 1.6 1.3 3.1 1.3 4.8 0 1 .2 1.9.4 2.7.2 1.2.8 2.4 1.3 3.5.5 1 .7 2.1 1.2 3.2l1.3 3.3c.3.7.8 1.5 1 2.3l1.6 6.2c.7 2.7 2.2 5 3.2 7.7l1.1 2.8 1 2.3c.2.6 0 1.2.3 1.8.2.6.6 1 .9 1.6.4.8 1.2 1.4 1.7 2.2l1.6 2c.5.6.4 1.7.7 2.5.2.8.1 1.6.1 2.4 0 .7.2 1.5-.5 1.8-.6.2-1.4 0-2-.2-.8-.3-1.3-1.5-1.8-2-.9-1-2-1.4-3.1-.9l-1.6.8c-.5.2-1 .7-1.4 1l-1.3.8c-.3.3-1.2.2-1.6 0-1-.3-2-.5-2.9-1.4l-1.2-1.1c-.4-.5-1.2-1-1.4-1.6-.3-.5-.7-.9-.9-1.4-.1-.6-.5-1.2-.8-1.8-1-1.7-1.3-3.6-2.1-5.3-1-2-1.1-4.2-2-6.3a20 20 0 0 1 -1.1-6.9c0-2-1-4-1.3-6.1-.2-2.6-.8-5-1.4-7.5-.2-1.3-.5-2.4-.6-3.7l-.2-2.6v-4c0-1.6-.2-3.2-.4-4.8-.2-1.4-.1-2.8-.4-4.2-.2-1.1-.3-2.3-.3-3.4-.1-1.2-.3-2.3-.3-3.5l-.2-3.8-.1-7.6c0-1-.2-2.2 0-3.1.2-.5 0-.9.2-1.3l.2-1.5c0-1.8.7-3.6 1.2-5.2.4-1.4.8-2.6 1-4 .3-1.6 1.8.9 1.8 1.6zm41.1 55.7c0 1.1-1.1 2.3-1.1 3.4v2.6c0 2.5 1 5.3 2.6 7.2 3.8 4.5 8.6 7.6 13.9 10 2 .9 4 2 6.2 2.8l2.6.8c1.6.7 3.2 2 4.5 3.2 3.2 2.7 6.3 5.5 9.4 8.4l4.3 4c1 .9 1.9 1.8 3 2.6 1.6 1.2 3.2 2.5 5 3.6l4.6 2.5c1.9 1 4 1.8 5.7 2.9 1 .6 2 1 3.2 1.3 2.6.8 5 .7 7.7.8l5.3.5 11.1.3c3.3 0 6 2 8.7 3.7 3.3 2 6.8 3.2 10.1 5 2.5 1.3 5.2 2.1 7.8 3.3 2 .9 4.1 1.5 6.2 2.1 1 .4 2.4.6 3.4 1.1 1.4.8 3 1.3 4.4 2 1.7.8 3.4 1.7 5.2 2.3 2.9 1 5.5 2.6 8.5 3.3 1.5.4 2.2 1.8 2.8 3.2 1 2.5.6 5.6.6 8.3 0 1.4 0 2.8-.2 4.2 0 1-1.3 2.2-1.8 3-1.4 2-4 3.2-6.2 4.2-2.4 1.1-5 1.8-7.6 2.3-2.4.5-4.6 1-7.1 1h-6c-1.2 0-.4.2 0 .6l1.2 1.4a4 4 0 0 0 1.8 1c.9.2 2 .8 2.8.8 2.4.2 4 1.6 6.3 2.3 2.5.8 5 .6 7.7.5 1.8 0 3.3-.9 5-1.4 1.5-.6 4-1.2 5-2.6.5-.6 1.6-1 2.2-1.6 1-.7 1.8-1.7 2.7-2.4 1.1-.8 1.8-2.2 2.4-3.4.8-1.8 2.2-3.5 2.6-5.4l.7-2.8c.2-.9 0-1.9 0-2.8a6 6 0 0 0 -.5-2.3c-.3-.6-.3-1.4-.6-1.9-1-1-1.8-1.8-2.6-3-.4-.4-.6-1-1-1.6-.5-.7-2.3-2-2.5-2.7-.4-1.3-.7-1.4-1.4-2.5-.4-.7-1-1.1-1.5-1.7l-2-2-1.7-2-1.6-2a13 13 0 0 0 -1.8-1.8c-1.2-1-2.4-2.4-3.8-3l-2.3-1c-1.8-.8-2.7-2.6-4.5-3.5-.8-.4-1.4-1.6-2-2.2-.5-.4-1.4-.6-1.8-1-.4-.7-2-.8-2.6-1.3-.7-.5-1.4-1.3-2.2-1.8-.7-.3-.5-1-1.2-1.4-.7-.5-1.8-.4-2.7-.8-1-.5-2.3-.9-3.1-1.7-1-.8-2.1-1-3-2-.4-.4-1-.5-1.4-1.1a3.7 3.7 0 0 0 -1.8-1.4c-.5-.1-1-.5-1.6-.8-.4-.2-1-.2-1.4-.5l-2-1.4c-.8-.5-1.6-.6-2.4-1l-1.3-1.2c-1.2-.7-2.3-1.7-3.7-1.7-1.3 0-3.1-.4-4.4-.4-2.6 0-4.7 1-7.2 1h-13l-2.7-.6c-2.3-.5-3.7-1.8-6-2.3-.6-.2-1.3-.7-2-.9-1.4-.5-2.8-1.2-4.2-2-.8-.3-1.6-.3-2.3-.7-1-.5-1.3-2-3.3-2-2.2-.6-2.3-1.2-4.4-2.2-.5-.2-3.2 0-3.6-.3a5.1 5.1 0 0 0 -2-1.2c-.3 0-.9-.7-1.2-.9l-2.2-1.4-2-1.5c-1.2-.8-2.5-1.4-3.7-2-.5-.3-1-.8-1.7-1-.7 0-1.8-.4-2.3-.8-.6-.3-1-1-1.7-1.3-.6-.3-1.8.3-2.4 0l-1.6-1.3-1-.8c-.9-.5-1.6-1.5-2.6-1.8-.7-.3-1.4-1.2-2-1.7l-2-1.6-2.4-2c-.4-.5-1-.6-1.6-.8-.9-.5-2.3 1-2.5 0 0-.6-.8-3-1-3.8v-1.2l-.2-.6c-.2-.4 0-1 0-1.2l-1.2-2c-.4-.8-1-2.5-2.1-2.5-.5 0-.9-.4-1.5-.4-.3 0-.7.9-.7 1.2s-.3.4-.3.7l-.2.8z" fill="#ecbaaa"/><path d="m44 208.2c.9-.6 1.8-1.1 2.5-1.9l2.6-1.8 1.1-.9 1.8-1.3 2.6-2.2c.7-.7 1.6-1.2 2.3-2l1.8-1.4 1.7-1.2c.4-.5 1-.8 1.5-1.3 1.2-1.5 3.2-2.4 4.6-3.7 1.3-1.2 2.6-2.5 3.8-4s2.8-3.3 3.3-5.3l1.1-4 1.3-5.2c1-3.7 1.5-7.3 1.5-11.1 0-3.1.9-6 1.4-9.1.4-2.8 1.3-5.5 1.5-8.3a31 31 0 0 1 1-6.7c.4-2 .3-4.2.3-6.2 0-1.2.2-2 .5-3v-.1c.4-1.7 0-3.4.2-5.1.2-1.6.2-3.2.5-4.8.6-3 1-5.8 2.2-8.6.3-.9.9-1.5 1.3-2.3.3-.6.9-1 1.2-1.5s1.2-1 1.6-1.4 1.1-.5 1.6-.5l2.7.1c1 .3 1.7.9 2.6 1.3 1 .5 2 1.3 2.9 2 .9.8 2 1.4 2.7 2.2 1.2 1.2 2.2 2.5 3 4l1.1 2 1 2.3c.5.7.6 1.5 1 2 .4.4.6.9.9 1.3.7 1.1 1.2 2.4 2 3.5 1 1.2 2.4 2.4 3.2 3.8.3.6.2 1.3.3 2 .2.9 1 1.4 1 2.4l.2 5.6c0 .3-.2 3.1 0 3.2.7.2 1.5 0 2.2 0 .4 0 .8-.7 1.1-.9 1-.6 2.4 0 3 1 .6 1.2.4 2.8.7 4.1.5 1.6.8 3.3.9 5 0 1.3.6 3.5 1.5 4.4 1.1 1.1 2.6 2 3.8 3 .5.4 1.3.8 1.3 1.5 0 1 .7 2.2 1.3 3 .7.8.4 2.1.5 3.2.2 1 .6 2 1 3.1.2 1 .1 2.2.5 3 .5 1 .8 1.8.8 3l.1 1.4c.3.5 0 1.2.4 1.7.3.5.5 1.5 1.3 1.6l1.7.1c1.4 0 2.7 0 3.8 1 .2 0 .5.2.6.4.2.3 0 .4.3.6.1 0 .1.6.3.8l.6.7.7.9.6.7c1.2 1.3 2.4 2.3 4.1 3 1.6.5 3 1 4.7 1.3l1.2.4h.1l3.4 1.9c1.8 1 3.4 2.4 5.1 3.5 2.2 1.4 4.6 2.8 7 3.9 2 .8 4 1 6 1.9l3 1c1 .5 2 1 3 1.3l4.4 2.2c.6.3 1.2.7 1.7 1.2 1 1 3 1.8 4.4 2.4s3.2 1.7 4.7 1.7c2.5.1 5-.7 7.5-.7l5.7.1 2.8-.1 1.6-.2c.3 0 1.1.2 1.4 0 1.3-.8 4-.3 5.4-.1 2.3.2 4.7 1.4 6.7 2.5l2.4 1.4c.4.3 1.2.4 1.5.9.5 1 2 1.7 3 2.3 1.2.7 2.3 1.7 3.5 2.5 1.3.7 2.4 1.7 3.8 2.4 1.5.7 3 1.7 4.5 2.3.2 0 .6 0 .8.2l2.4 2.3c.9 1 1.6 1.3 2.7 2l3 1.6 2.4 1.7c1.8 1 3.4 2.5 5 3.9a31 31 0 0 0 3.9 2.7c.5.3 1.2.5 1.6 1 .5.5 1 1.2 1.6 1.6l1.5 1.3.4.8 1 1.4c.3.4.9 1 1 1.5.4.8 1 1.7 1.6 2.3.8.8 1.4 1.9 1.9 2.9.4.7 1.2 1.2 1.8 1.8.7.8 1.4 1.8 2.3 2.5 1 .8 2 1.3 2.8 2.4.2.3.1.6.1 1 0 .5.3.9.4 1.4.3 1.2.5 2.2.5 3.4 0 1-.1 1.8-.3 2.6 0 .7-.5 1.2-.6 1.8-.1 1.2-1.4 1.8-2 2.7-.5.7-1.4 1.1-2 1.7-.4.4-.6 1-.9 1.4-.3.4-.7.9-.7 1.4v.7c0 .3-.3.4-.3.7-.2 3.3-3.5 4.7-6 6-1.8.8-3.6 1.1-5.3 1.8-1.4.6-3 1.6-4.4 1.6l-3.7-.2c-1.5 0-3.1 0-4.6-.5-3.8-1.2-6.8-5-10.8-6-2-.5-3.8-1.7-5.9-2.2-3.2-.7-6.3-1.8-9.4-2.5-2.3-.6-4.7-1-7-1.7l-5.4-2.1c-3.5-1.5-7-3.1-10.7-4.4-1-.3-2.1-.3-3.1-.8-1-.4-1.8-.9-2.7-1.4-1.2-.7-2.4-1.5-3.6-2-1-.3-1.7-1-2.7-1.6-2-1.1-3.7-2.7-5.6-4-2.3-1.8-5-3.1-7.4-4.7a53 53 0 0 0 -8-3.7c-1.2-.5-2.4-1.2-3.7-1.5-.8-.2-1.6-.8-2.2-1.1s-1-.4-1.4-.9a7 7 0 0 0 -1.6-1.3l-1.4-1.5-3.5-3.3c-1.3-1.3-3-2.4-4.6-3.3-.8-.4-1.8-.7-2.5-1.2-1.2-1-2.3-2.3-3.3-3.4-1.5-1.6-3.3-2.8-5-4.4-1-1-1.8-2.1-3-2.8-1-.5-1.6-1.4-2.3-2.1-1-1-1.8-2-2.9-2.9-2.9-2.2-6.2-3.5-9.5-5.1-1.6-.9-3.3-2-4.6-3.2-1.3-1.3-3.2-2.2-4.7-3.2a81.6 81.6 0 0 1 -5.4-3.8l-.8-.6c-.1 0-.6 0-.5-.2.2 0-.2-.3-.3-.4-.4-.4-.7-1-1.2-1.2-.4-.2-.6-1-1-1-.7-.1-1.6.4-2.2.7-1 .6-1.1 1.4-2 2.2l-1.1 1-2.4 2c-.8.4-1.3.9-2 1.5l-.8 1.1c-.4.6-1 1-1.5 1.6l-1.2 1.4c-.8 1-1.8 1.6-2.6 2.4s-1.5 1.5-2.4 2.1c-1.2.9-2 2-3 3.1a24.7 24.7 0 0 0 -3.3 4c-1 1.5-2 2.6-3.2 3.8-1.6 1.6-2.8 3.4-4.3 5l-1.2 1.4c-.6.6-1 .9-1.4 1.6a35 35 0 0 1 -2.8 4.4l-2.5 3c-.4.7-.9 1.3-1.4 1.8-.6.7-.9 1.6-1.4 2.4-1.3 1.9-2.3 4-3.5 6-.8 1.2-1.8 2.2-2.5 3.5a61 61 0 0 0 -1 2c-.4.8-1 1.2-1.4 1.9-.4.4-.9.6-1.1 1.1l-.6.7-1.8 1.5c-.7.4-1.3 1.1-2 1.6-.5.4 0 1-.5 1.5-.9.7-1.9 1.4-2.7 2.3-1.4 1.3-3.1 2.4-4.6 3.4l-1.5 1c-.4.2-.7.6-1.2.8-1.5.7-3.4 1.2-4.8 2.2-.7.5-2.1.9-3 1-.8.3-1.6.8-2.5.8l-4.6-.1c-2.2 0-4.4-.7-6.5-1.2l-2.6-.5c-.7 0-1.2-.4-1.9-.4-.5 0-1.3-.8-2-1-.8-.1-1.5-.6-2.3-1-.6-.4-1.2-.8-1.8-1l-1-.8c-1.3-.8-1.5-2.7-2-4-.5-1-1.5-2-1.7-3-.3-1.3-.5-2.8-.5-4.1 0-2.5-.3-5.2 0-7.6.4-1.8.1-3.6.6-5.3.4-1.2 1-2.6 1-3.9 0-.8.3-1.6.4-2.5 0-.7.3-1.7.5-2.4.4-1 .3-2 1.1-2.9 1.6-1.6 3-3.6 4.5-5.3.2-.2.5-.8.8-.9l.2.2.6-.3c.2-.4.6-.4.8-.8l.5-.9c.5-1 .8-1.4 1.8-1.9.5-.2 1.2-.8 1.7-.9l1.7-.5c.2-.4 1-.7 1.4-.9.2 0 .2-.3.5-.4.3 0 .4-.2.7-.4 4.4-2.8 9.8-3.7 13.9-7a70.5 70.5 0 0 0 7.2-6.3c.4-.4.9-.6 1.3-.9z" stroke="#2c2c2c" stroke-linecap="round" stroke-width="2"/><path d="m116.3 140.9v.5l-.2 1.5-.1 1-.2 1.1v2.2l.1 1 .2 1c0 .4.2 1 .4 1.3l.5 1 .3 1 .4 1.2.3 1c0 .4.4.8.4 1.1v1m-36.1-28.7.7-.2c.3 0 1-.2 1.2 0 .4.6.9 1.1 1 1.8l.7 2c.6 1.6 1 3.4 1.3 5.2l.7 2.5c.4 1.5.4 3 .7 4.3l.3 2.8.2 1.4c0 .8.4 1.6.4 2.5v3.5l.1 1v1c.3.5.2 1.1.4 1.6l.1 1.2c.1.5.4 1 .4 1.6.2.9.2 1.7.2 2.6 0 .8.2 1.6.3 2.3l.4 2.2c.5 1.7.8 3.4 1.5 5l1.1 2.1 1 1.6c.3.7.6 1.5 1 2 .8 1.2 1.7 2.3 2.1 3.6.3.8.9 1.5 1.1 2.3.2.5.4 1.3.8 1.7.1.1.1.4.3.5l.4.4.5.4.6.3c.3.4.8.7 1 1.2l.1 2.2v4.2l.2 2.3v4.4" stroke="#2c2c2c" stroke-linecap="round" stroke-width="2"/><path d="m137.5 123.2c-.3 0-1-.5-1.1.2v.4c0 .3.4 1.1.5 1.3.3.4.4.9.5 1.3.2.7.2 1.6 0 2.3v1.6l-.2 1.2v1.7c.2 0 .5.1.7.3l.3.3c.2.1.3.4.5.4l.7.5 1 .5c1.7.7 3 2.3 4.5 3.4l2 2c.7.6 1.5 1.2 2.1 1.9.6.5 1 1.2 1.6 1.9.4.6 1 1.2 1.3 1.9l.2.5h.3l1.4-1 1.5-1.6 1.2-1.4c.5-.6 1.3-1 1.9-1.5l1.8-1.5 2.2-1.5 3.6-2.6 2.8-2.2c1.3-1 2.7-1.8 3.8-2.8 1-.9 2.1-1.5 3.2-2.2l3.5-2.3 2-1 1.4-1 1.2-.7 1-.8.4-.5.4-.5c.8-.8 1.5-1.6 2.4-2.3l1.8-1.5 1.8-1.5 1.6-1.5s.5-.4.4-.6l-.2-.3-.3-.7c-.2-.4-.2-.9-.7-1-.2-.2-.3-.1-.3-.3l-.1-.3c-.3-.2-.3-.7-.4-1l-1-1.7-.5-.8-.4-1-.9-1.5a8.4 8.4 0 0 0 -1.5-1.5l-.5-.5c-.5-.7-1-1.4-1.2-2.3a39.7 39.7 0 0 1 -.9-9.5c0-.1.2-.6 0-.5l-.3.6-.3.6c-.2.8-.7 1.5-1 2.2l-.4 1v.2l-.4.7c-.5.6-1.2 1.2-1.5 2l-.3.6-.5 1c-.4.6-1 1.2-1 2v.7l-.1.5-.5.7-.4.5-.6.7-1 1.1-1.1 1.5-1.8 2.3-1 1.4-1 1c-.4.2-.7.6-1 .9-.4.3-1 .6-1.2 1 0 .2-.5.3-.6.4-.4.1-.8.5-1.2.7-.3.1-.5.5-.8.6l-1 .3-1 .4c-.5 0-1 .3-1.5.4-1 .2-2 .5-3 1-.6.3-1.3.5-1.9.9l-1.9.8-2.2.8a7 7 0 0 0 -1.9.6l-1.1.4-1.5.5-5.1.9a22.5 22.5 0 0 1 -4.6.1 13 13 0 0 0 -2.6-.2z" fill="#ecbaaa" stroke="#2c2c2c" stroke-linecap="round" stroke-width="2"/><path d="m172.8 122.5-.6.3-2.5 1.5-.7.3-.6.3-.6.4c-.2 0-.4.3-.6.4l-.9.3-1.3.5a2 2 0 0 0 -.7.3l-1.8 1.8c-1 .9-2.1 1.4-3.3 1.7l-2 1-1.2.5-1 .4a15 15 0 0 1 -7.3.9l-1.5-.1-1.2-.2-1-.3-.9-.2a2 2 0 0 1 -1-.3s0-.2 0 0l-.3.7c-.2.4-.4.9-.7 1.2l-.5.8c-.2.2 0 .6.1.8.6 1 1.7 1.6 2.5 2.3l1 .6.6.3.7.5.7.6.4.5.7.7c.6.5 1 1.1 1.5 1.7.3.4.6.8 1 1l.6 1 1.4 1 .6.2h.3l.6-.4 1-.7c.4-.2.7-.6 1-1l1.3-1.4c.5-.3 1-.7 1.3-1.1l1-.8 1-.8c.5-.5 1.2-1 1.8-1.3l1.6-1 1.5-1c1-.6 2.3-1.1 3.4-1.8l.9-.6 1.2-1 1-.8 1-.8 1.2-1.1a47.4 47.4 0 0 1 4.7-3.4c.4-.3 1-.7 1.5-.8l.6-.3.5-.4 1.3-1 2-1 2-1.4.7-.7.5-.5.4-.6c.2-.4.6-.7.9-1l1.2-1.5c.2-.2.6-.5.6-.8v-.2l-.3-.6c0-.3 0-.5-.2-.6 0-.2-.3-.4-.4-.5l-.6-.5-.8-.8-.5-.5-.4-.5-.6-.7-.5-.6-.2-.3-.5-.6-.7-.8c-.1-.3-.3-.6-.6-.8l-.2-.4c-.1-.1 0-.2 0-.4l-.1.2-.1.4-.5 1-.2.6-.3 1.2-.6 1.3c-.1.5-.1.9-.3 1.3l-.8 1.5-.6 1-1 1-1.2 1.2-.7.7c-.4.5-1 1-1.5 1.3-.7.5-1.5 1-2.3 1.3l-1 .4z" fill="#f3d4ca"/><path d="m137.5 123.2c-.3 0-1-.5-1.1.2v.4c0 .3.4 1.1.5 1.3.3.4.4.9.5 1.3.2.7.2 1.6 0 2.3v1.6l-.2 1.2v1.7c.2 0 .5.1.7.3l.3.3c.2.1.3.4.5.4l.7.5 1 .5c1.7.7 3 2.3 4.5 3.4l2 2c.7.6 1.5 1.2 2.1 1.9.6.5 1 1.2 1.6 1.9.4.6 1 1.2 1.3 1.9l.2.5h.3l1.4-1 1.5-1.6 1.2-1.4c.5-.6 1.3-1 1.9-1.5l1.8-1.5 2.2-1.5 3.6-2.6 2.8-2.2c1.3-1 2.7-1.8 3.8-2.8 1-.9 2.1-1.5 3.2-2.2l3.5-2.3 2-1 1.4-1 1.2-.7 1-.8.4-.5.4-.5c.8-.8 1.5-1.6 2.4-2.3l1.8-1.5 1.8-1.5 1.6-1.5s.5-.4.4-.6l-.2-.3-.3-.7c-.2-.4-.2-.9-.7-1-.2-.2-.3-.1-.3-.3l-.1-.3c-.3-.2-.3-.7-.4-1l-1-1.7-.5-.8-.4-1-.9-1.5a8.4 8.4 0 0 0 -1.5-1.5l-.5-.5c-.5-.7-1-1.4-1.2-2.3a39.7 39.7 0 0 1 -.9-9.5c0-.1.2-.6 0-.5l-.3.6-.3.6c-.2.8-.7 1.5-1 2.2l-.4 1c0 .1-.4 0-.4.2-.2.2.1.5 0 .7-.5.6-1.2 1.2-1.5 2l-.3.6-.5 1c-.4.6-1 1.2-1 2v.7l-.1.5-.5.7-.4.5-.6.7-1 1.1-1.1 1.5-1.8 2.3-1 1.4-1 1c-.4.2-.7.6-1 .9-.4.3-1 .6-1.2 1 0 .2-.5.3-.6.4-.4.1-.8.5-1.2.7-.3.1-.5.5-.8.6l-1 .3-1 .4c-.5 0-1 .3-1.5.4-1 .2-2 .5-3 1-.6.3-1.3.5-1.9.9l-1.9.8-2.2.8a7 7 0 0 0 -1.9.6l-1.1.4-1.5.5-5.1.9a22.5 22.5 0 0 1 -4.6.1 13 13 0 0 0 -2.6-.2z" stroke="#2c2c2c" stroke-linecap="round" stroke-width="2"/><path d="m26.3 220c-.8 0-1.8 1-2.4 1.2l-2.1.6c-1 .3-1.8 1-2.7 1.6l-1.4.5c-.6.2-1 .6-1.6.9-1.5.7-2.3 2.3-3.4 3.4a12 12 0 0 1 -2.4 2.1c-.1.1-.9 1-.9.4 0-2.2 0-4.3 1-6.3l.7-1.7c.2-.7.5-1.8 1-2.2.8-1 1.2-2.6 1.5-3.9.4-1.2.8-2 2-2.4 1-.5 2.2-1.1 3-1.9 1-.8 1.6-1.7 2.5-2.6l1.4-1.1c.7-.5 1.6-1.2 2.4-1.5 1.3-.5 2.5-1.4 3.8-2 .6-.4 1-1.2 1.8-1.4l.7-.7.7-.7c.7-1 1.5-2 2-3.3.4-.8 1-1.6 1.2-2.5a16.2 16.2 0 0 1 3-5l2.6-2.3c.8-.8 1.4-1.6 2-2.6.2-.3.8-.5.8 0s0 .8-.2 1.2c-.1.5-.5 1-.7 1.4l-.6 1.5a5.7 5.7 0 0 0 -.1 3.8c.3 1.1 1 2.5 1 3.7v2.8c0 .5-.4.8-.6 1.2l-1.1 1.2-1.6 1.5c-.3.6-.7 1-1.2 1.5-.4.4-.8.6-.8 1.2l-.3 1.5-.4 1.6c0 .5-.2 1-.4 1.7l-.2 1.4c0 .4-.6.9-.8 1.2l-1 1-2.7 2.1c-.5.5-1.2.8-2 1-.6.3-1.5.7-2.3.7-.2 0-.2.2-.5.2z" fill="#ff8c00" stroke="#2c2c2c" stroke-linecap="round" stroke-width="2"/></g></svg>